<?xml version="1.0" standalone="no"?>
<!DOCTYPE svg PUBLIC "-//W3C//DTD SVG 1.1//EN" "http://www.w3.org/Graphics/SVG/1.1/DTD/svg11.dtd" >
<svg>
<metadata>
Created by FontForge 20110222 at Wed Jun  4 15:46:11 2014
 By deploy user
Copyright (c) 1988, 1990, 1993, 2003 Linotype Library GmbH, www.linotype.com. All rights reserved. Copyright (c) 1988, 1990, 1993 Adobe Systems Incorporated. All Rights Reserved.
</metadata>
<defs>
<font id="HelveticaNeueLTPro-BlkExO" horiz-adv-x="870" >
  <font-face 
    font-family="HelveticaNeueLT Pro 93 BlkEx"
    font-weight="900"
    font-style="italic"
    font-stretch="normal"
    units-per-em="1000"
    panose-1="2 11 10 7 4 5 2 3 2 4"
    ascent="714"
    descent="-286"
    x-height="547"
    cap-height="714"
    bbox="-223 -235 1449 1006"
    underline-thickness="50"
    underline-position="-50"
    slope="-12"
    unicode-range="U+000D-FB02"
  />
<missing-glyph horiz-adv-x="512" 
d="M222 117h56v67h-56v-67zM225 234h46q0 52 6 72q6 19 43 52q37 34 50 60t13 60q0 59 -35 95t-89 36q-56 0 -92 -34t-43 -103l50 -8q11 95 82 95q31 0 53.5 -24.5t22.5 -60.5q0 -20 -9.5 -37t-40.5 -46q-31 -31 -46 -59q-13 -25 -13 -81zM462 50h-412v617h412v-617z
M512 718h-512v-718h512v718z" />
    <glyph glyph-name="IJ" unicode="IJ" horiz-adv-x="1249" 
d="M72 0l148 714h282l-148 -714h-282zM966 260l94 454h282l-90 -433q-12 -59 -28.5 -102t-47 -83.5t-74 -65.5t-110.5 -40t-155 -15q-71 0 -122.5 6t-93 21t-66 39t-37.5 60t-12 84.5t15 113.5h282q-19 -86 -11 -113q10 -37 64 -37q45 0 71 26t39 85z" />
    <glyph glyph-name="ij" unicode="ij" horiz-adv-x="783" 
d="M60 0l113 547h250l-113 -547h-250zM184 601l29 138h250l-29 -138h-250zM330 -190l36 174h45q36 0 49.5 10t20.5 49l105 504h250l-113 -543q-14 -66 -36 -106.5t-57.5 -60.5t-72.5 -26.5t-96 -6.5q-87 0 -131 6zM597 601l29 138h250l-29 -138h-250z" />
    <glyph glyph-name="napostrophe" unicode="&#x22;n" horiz-adv-x="868" 
d="M96 0l113 547h242l-14 -68h2q31 31 96 57t147 26q110 0 165.5 -52.5t32.5 -161.5l-72 -348h-250l58 283q22 99 -75 99q-53 0 -91 -32.5t-52 -97.5l-52 -252h-250zM141 714l22 108h222l-16 -76q-17 -65 -57.5 -86.5t-145.5 -22.5l10 48q30 2 46 8t25 21h-106z" />
    <glyph glyph-name="fi" unicode="fi" horiz-adv-x="888" 
d="M578 0l113 547h250l-113 -547h-250zM702 601l29 138h250l-29 -138h-250zM125 0l81 391h-116l32 156h116l12 58q17 76 73 108t177 32q102 0 163 -6l-27 -132h-75q-35 0 -50 -10t-19 -34l-4 -16h135l-32 -156h-135l-81 -391h-250z" />
    <glyph glyph-name="fl" unicode="fl" horiz-adv-x="888" 
d="M125 0l81 391h-116l32 156h116l12 58q17 76 73 108t177 32q102 0 163 -6l-27 -132h-75q-35 0 -50 -10t-19 -34l-4 -16h135l-32 -156h-135l-81 -391h-250zM578 0l153 739h250l-153 -739h-250z" />
    <glyph glyph-name=".notdef" horiz-adv-x="512" 
d="M222 117h56v67h-56v-67zM225 234h46q0 52 6 72q6 19 43 52q37 34 50 60t13 60q0 59 -35 95t-89 36q-56 0 -92 -34t-43 -103l50 -8q11 95 82 95q31 0 53.5 -24.5t22.5 -60.5q0 -20 -9.5 -37t-40.5 -46q-31 -31 -46 -59q-13 -25 -13 -81zM462 50h-412v617h412v-617z
M512 718h-512v-718h512v718z" />
    <glyph glyph-name=".null" horiz-adv-x="500" 
 />
    <glyph glyph-name=".null" horiz-adv-x="500" 
 />
    <glyph glyph-name="nonmarkingreturn" horiz-adv-x="333" 
 />
    <glyph glyph-name="CR" unicode="&#xd;" horiz-adv-x="0" 
 />
    <glyph glyph-name="space" unicode=" " horiz-adv-x="408" 
 />
    <glyph glyph-name="exclam" unicode="!" horiz-adv-x="408" 
d="M154 275l63 439h270l-121 -439h-212zM73 0l46 224h262l-46 -224h-262z" />
    <glyph glyph-name="quotedbl" unicode="&#x22;" horiz-adv-x="722" 
d="M461 286l89 428h168l-89 -428h-168zM211 286l89 428h168l-89 -428h-168z" />
    <glyph glyph-name="numbersign" unicode="#" horiz-adv-x="600" 
d="M394 299l33 96h-77l-33 -96h77zM87 0l62 179h-77l25 120h94l33 96h-78l25 120h95l62 179h126l-62 -179h77l62 179h126l-62 -179h77l-25 -120h-94l-33 -96h78l-25 -120h-95l-62 -179h-126l62 179h-77l-62 -179h-126z" />
    <glyph glyph-name="dollar" unicode="$" horiz-adv-x="964" 
d="M549 258l-21 -104q95 0 104 46q2 10 2 15q0 28 -42 36zM538 463l20 95q-48 0 -71 -10t-27 -33q-6 -23 9 -32.5t69 -19.5zM419 -110l18 90q-184 4 -265.5 57t-61.5 173h294q-3 -28 14.5 -40.5t55.5 -15.5l23 112l-182 30q-88 13 -120 65.5t-17 125.5q25 121 127.5 173
t284.5 54l19 90h54l-19 -90q59 -2 107 -8.5t93 -22.5t74 -40.5t44 -63t9 -89.5h-294q5 33 -12.5 48.5t-52.5 19.5l-22 -103l159 -25q125 -20 169 -69t24 -142q-15 -74 -59.5 -124t-111.5 -73.5t-132.5 -32.5t-147.5 -9l-18 -90h-54z" />
    <glyph glyph-name="percent" unicode="%" horiz-adv-x="1093" 
d="M797 173q-3 -17 -3 -33q0 -23 16 -37.5t46 -14.5q77 0 93 85q9 37 -4 61t-54 24q-73 0 -94 -85zM243 -20l621 734h128l-621 -734h-128zM287 521q-9 -37 4 -61t54 -24q78 0 94 85q3 17 3 32q0 53 -62 53q-40 0 -63 -24t-30 -61zM641 173q21 97 91.5 145t181.5 48
q112 0 162 -48t29 -145q-39 -193 -272 -193q-111 0 -161.5 48t-30.5 145zM131 521q20 97 90.5 145t181.5 48q231 0 192 -193q-41 -193 -272 -193q-111 0 -162 48t-30 145z" />
    <glyph glyph-name="ampersand" unicode="&#x26;" horiz-adv-x="1038" 
d="M537 550q-5 -24 42 -65q42 14 62.5 28.5t25.5 39.5q4 19 -12.5 31t-45.5 12q-63 0 -72 -46zM570 164l-144 158q-63 -27 -74 -84q-8 -42 20.5 -71.5t78.5 -29.5q32 0 67 8.5t52 18.5zM711 0l-46 53q-52 -33 -139.5 -55.5t-176.5 -22.5q-141 0 -218 64t-54 175
q17 81 81 134t171 74q-58 52 -43 122q16 78 100 128t241 50q79 0 139 -16t95 -56t22 -99q-25 -118 -198 -154l97 -111q81 55 172 136l98 -105q-79 -79 -170 -137l164 -180h-335z" />
    <glyph glyph-name="quotesingle" unicode="'" horiz-adv-x="408" 
d="M179 286l89 428h168l-89 -428h-168z" />
    <glyph glyph-name="parenleft" unicode="(" horiz-adv-x="500" 
d="M408 714h175q-66 -87 -124 -210t-82 -242q-24 -134 -17.5 -248t35.5 -204h-175q-67 77 -94 197.5t1 254.5q27 133 104.5 254.5t176.5 197.5z" />
    <glyph glyph-name="parenright" unicode=")" horiz-adv-x="500" 
d="M200 -190h-175q66 87 124 210t82 242q24 134 17.5 248t-35.5 204h175q67 -77 94 -197.5t-1 -254.5q-27 -133 -104.5 -254.5t-176.5 -197.5z" />
    <glyph glyph-name="asterisk" unicode="*" horiz-adv-x="464" 
d="M100 496l65 128l122 -55l24 145h138l-36 -145l144 55l13 -128l-142 -40l66 -111l-128 -83l-55 118l-105 -118l-94 83l112 111z" />
    <glyph glyph-name="plus" unicode="+" horiz-adv-x="600" 
d="M295 325l38 181h144l-38 -181h181l-30 -144h-181l-37 -181h-144l37 181h-181l30 144h181z" />
    <glyph glyph-name="comma" unicode="," horiz-adv-x="408" 
d="M73 0l46 224h262l-35 -170q-12 -57 -41 -103t-63.5 -73.5t-75.5 -46.5t-74 -26.5t-62 -8.5l19 90q114 13 142 114h-118z" />
    <glyph glyph-name="hyphen" unicode="-" horiz-adv-x="481" 
d="M145 207l72 174h363l-72 -174h-363z" />
    <glyph glyph-name="period" unicode="." horiz-adv-x="408" 
d="M73 0l46 224h262l-46 -224h-262z" />
    <glyph glyph-name="slash" unicode="/" horiz-adv-x="444" 
d="M-11 -25l437 764h177l-438 -764h-176z" />
    <glyph glyph-name="zero" unicode="0" horiz-adv-x="964" 
d="M109 345q39 178 172 272.5t351 94.5q219 0 311.5 -94.5t53.5 -272.5q-36 -175 -169 -269t-351 -94q-217 0 -310.5 94t-57.5 269zM379 345q-13 -75 20.5 -129t117.5 -54q88 0 142.5 54t67.5 129q17 77 -16 132t-120 55q-86 0 -140 -54.5t-72 -132.5z" />
    <glyph glyph-name="one" unicode="1" horiz-adv-x="666" 
d="M277 0l82 395h-212l36 174h42q97 2 151.5 28.5t95.5 96.5h211l-144 -694h-262z" />
    <glyph glyph-name="two" unicode="2" horiz-adv-x="964" 
d="M449 384l214 44q57 10 66 54q6 29 -22.5 42.5t-80.5 13.5q-34 0 -57.5 -3t-50.5 -11.5t-45.5 -29.5t-27.5 -53h-300q21 69 62 120t87.5 79t108.5 45t113.5 22t112.5 5q74 0 133 -5.5t115 -21t90.5 -41t50.5 -68t4 -98.5q-10 -47 -40 -84.5t-71.5 -60.5t-82 -37t-85.5 -22
l-260 -47q-88 -15 -120 -53h581l-36 -174h-878q17 78 50 139.5t72 101t91.5 69.5t100 46t105.5 28z" />
    <glyph glyph-name="three" unicode="3" horiz-adv-x="964" 
d="M397 280l33 162h194q77 0 86 47q3 17 -2.5 27.5t-33 19t-78.5 8.5q-69 0 -92 -6.5t-42 -29.5h-294q32 111 148 157.5t317 46.5q226 0 313.5 -46.5t65.5 -151.5q-22 -112 -150 -140v-2q135 -32 107 -162q-22 -108 -131.5 -168t-337.5 -60q-54 0 -92.5 1.5t-88 7
t-83.5 15.5t-68 28.5t-53 44.5t-27.5 65t-1.5 88h288q-5 -38 26 -57t117 -19q147 0 158 68q6 32 -17 44t-80 12h-181z" />
    <glyph glyph-name="four" unicode="4" horiz-adv-x="964" 
d="M607 274l53 252l-307 -252h254zM63 106l36 175l487 413h359l-88 -420h129l-34 -168h-129l-22 -106h-250l22 106h-510z" />
    <glyph glyph-name="five" unicode="5" horiz-adv-x="964" 
d="M141 299l156 395h729l-35 -168h-554l-29 -71q101 24 206 24q28 0 53.5 -1t58 -4.5t58.5 -9t55.5 -15t50 -22.5t41 -31.5t29 -42t14 -53.5t-4.5 -67q-23 -116 -144 -183.5t-344 -67.5q-230 0 -319.5 60.5t-71.5 187.5h293q5 -36 27 -50q30 -18 102 -18q160 0 176 75
q9 46 -32.5 66t-122.5 20q-80 0 -122 -24h-270z" />
    <glyph glyph-name="six" unicode="6" horiz-adv-x="964" 
d="M1008 488h-282q-2 32 -39 45q-29 11 -87 11q-82 0 -129.5 -31t-65.5 -99q71 40 215 40q64 0 117 -6t101 -22t78 -40.5t43.5 -64.5t2.5 -92q-23 -115 -135.5 -181t-312.5 -66q-43 0 -78.5 1.5t-75 6.5t-70 13.5t-60.5 22.5t-51.5 33t-38.5 46t-24.5 60.5t-7 78t10.5 96.5
q19 89 56.5 155.5t84.5 107t110.5 65.5t126.5 34.5t139 9.5q88 0 153 -10.5t117 -34.5t78 -69t24 -110zM546 292q-80 0 -114 -17.5t-43 -53.5q-6 -33 28 -52t100 -19q80 0 114.5 18t40.5 53q7 33 -26.5 52t-99.5 19z" />
    <glyph glyph-name="seven" unicode="7" horiz-adv-x="926" 
d="M135 514l38 180h868l-45 -216q-227 -139 -343.5 -251.5t-159.5 -226.5h-362q28 89 81 156t166.5 150.5t324.5 205.5v2h-568z" />
    <glyph glyph-name="eight" unicode="8" horiz-adv-x="964" 
d="M570 430q75 0 106.5 12.5t38.5 45.5q7 32 -19.5 44t-101.5 12t-106.5 -12t-38.5 -44q-7 -33 19.5 -45.5t101.5 -12.5zM541 286q-84 1 -120 -14t-45 -57q-7 -31 23 -48t114 -17q149 0 163 65q9 41 -21 56.5t-114 14.5zM630 712q79 0 138.5 -5t111 -18.5t82 -35t43.5 -56
t4 -80.5q-12 -59 -52.5 -96t-101.5 -47v-2q67 -9 96.5 -55t18.5 -103q-25 -121 -144 -176.5t-349 -55.5q-229 0 -324.5 55t-70.5 177q11 57 59.5 103t119.5 55v2q-57 10 -81.5 46.5t-12.5 96.5q12 58 49.5 97t100.5 60t137.5 29.5t175.5 8.5z" />
    <glyph glyph-name="nine" unicode="9" horiz-adv-x="964" 
d="M99 206h282q1 -32 39 -45q32 -11 88 -11q82 0 129 31t66 99q-35 -20 -90 -30q-51 -10 -126 -10q-81 0 -144 10.5t-115 34.5t-74 69.5t-9 110.5q25 115 136.5 181t312.5 66q43 0 78 -1.5t74.5 -6.5t70 -13.5t61 -22.5t52 -33t38.5 -46t25 -60.5t7 -78t-12 -96.5
q-19 -89 -56 -155.5t-84.5 -107t-110.5 -65.5t-126 -34.5t-139 -9.5q-70 0 -125 6t-103.5 21.5t-80 40.5t-48.5 64.5t-16 91.5zM561 402q80 0 114.5 17.5t42.5 53.5q7 33 -27 52t-100 19q-79 0 -114.5 -18t-41.5 -53q-7 -33 26.5 -52t99.5 -19z" />
    <glyph glyph-name="colon" unicode=":" horiz-adv-x="408" 
d="M140 323l46 224h262l-46 -224h-262zM73 0l46 224h262l-46 -224h-262z" />
    <glyph glyph-name="semicolon" unicode=";" horiz-adv-x="408" 
d="M73 0l45 224h262l-35 -170q-12 -57 -41 -103t-63.5 -73.5t-75.5 -46.5t-74 -26.5t-61 -8.5l18 90q113 13 143 114h-118zM139 323l46 224h262l-46 -224h-262z" />
    <glyph glyph-name="semicolon" unicode="&#x37e;" horiz-adv-x="408" 
d="M73 0l45 224h262l-35 -170q-12 -57 -41 -103t-63.5 -73.5t-75.5 -46.5t-74 -26.5t-61 -8.5l18 90q113 13 143 114h-118zM139 323l46 224h262l-46 -224h-262z" />
    <glyph glyph-name="less" unicode="&#x3c;" horiz-adv-x="600" 
d="M83 177l32 152l546 191l-29 -138l-372 -129l318 -129l-28 -138z" />
    <glyph glyph-name="equal" unicode="=" horiz-adv-x="600" 
d="M107 293l30 144h506l-30 -144h-506zM61 69l30 144h506l-30 -144h-506z" />
    <glyph glyph-name="greater" unicode="&#x3e;" horiz-adv-x="600" 
d="M44 -14l28 138l372 129l-318 129l29 138l466 -191l-32 -152z" />
    <glyph glyph-name="question" unicode="?" horiz-adv-x="852" 
d="M398 470h-282q50 147 143 204q102 65 326 65q205 0 287 -55.5t63 -153.5q-12 -56 -46 -94t-117 -68q-102 -35 -129.5 -48.5t-38.5 -33.5h-256q8 33 16 50.5t28.5 39t59 38t101.5 34.5q46 14 66 30t26 42q5 26 -17.5 44.5t-79.5 18.5q-127 0 -150 -113zM286 0l46 224h262
l-46 -224h-262z" />
    <glyph glyph-name="at" unicode="@" horiz-adv-x="800" 
d="M379 334q-8 -37 7 -61t50 -24q45 0 80.5 31.5t45.5 76.5q8 38 -8.5 60.5t-52.5 22.5q-42 0 -77.5 -32.5t-44.5 -73.5zM622 491l22 50h98l-96 -244q-23 -52 -9 -56q2 -1 4 -1q36 0 73 40t54 116q25 119 -37.5 183t-183.5 64q-129 0 -221.5 -79.5t-119.5 -207.5
q-27 -132 40 -208.5t201 -76.5q114 0 208 59h104q-149 -155 -341 -155q-169 0 -265 108t-61 273q22 107 94 195.5t174 138t211 49.5q145 0 236 -86.5t64 -223.5q-14 -66 -47.5 -119.5t-72.5 -85t-82.5 -52.5t-75.5 -29t-52 -8q-23 0 -35.5 13t-9.5 37h-2q-54 -50 -109 -50
q-69 0 -109.5 55t-26.5 127q21 97 94 167t166 70q85 0 113 -63z" />
    <glyph glyph-name="A" unicode="A" horiz-adv-x="888" 
d="M582 256l-34 242h-2l-134 -242h170zM-33 0l452 714h346l156 -714h-300l-13 82h-294l-47 -82h-300z" />
    <glyph glyph-name="B" unicode="B" horiz-adv-x="1000" 
d="M457 540l-19 -92h213q71 0 79 47q6 22 -7 33.5t-53 11.5h-213zM404 286l-23 -112h241q72 0 84 56q6 26 -8 41t-53 15h-241zM69 0l148 714h642q211 0 174 -178q-10 -49 -40 -86t-74 -53v-2q58 -16 78 -65t10 -98q-23 -112 -100.5 -172t-226.5 -60h-611z" />
    <glyph glyph-name="C" unicode="C" horiz-adv-x="1019" 
d="M727 278h318q-60 -154 -166 -222q-125 -81 -366 -81q-32 0 -55.5 1t-59.5 3.5t-63.5 8.5t-61 15t-58 24.5t-49.5 35.5t-39.5 48.5t-24.5 63.5t-9 81.5t12 100.5q12 60 34 110.5t48 87t61 66t68 48.5t75 32.5t74.5 20.5t75 11t69 5t62.5 1q52 0 92 -3t93 -12.5t91 -30.5
t71 -53t48.5 -85t10.5 -121h-318q3 49 -24.5 87t-100.5 38q-188 0 -230 -202q-23 -104 13.5 -153t118.5 -49q68 0 114 29.5t76 93.5z" />
    <glyph glyph-name="D" unicode="D" horiz-adv-x="1019" 
d="M462 534l-74 -354h162q180 0 218 177q18 87 -16 132t-128 45h-162zM69 0l148 714h549q188 0 261.5 -82.5t34.5 -274.5q-38 -185 -147.5 -271t-290.5 -86h-555z" />
    <glyph glyph-name="E" unicode="E" horiz-adv-x="852" 
d="M69 0l148 714h759l-36 -174h-477l-20 -96h443l-36 -174h-443l-20 -96h477l-36 -174h-759z" />
    <glyph glyph-name="F" unicode="F" horiz-adv-x="796" 
d="M69 0l148 714h723l-36 -174h-441l-23 -109h406l-36 -174h-406l-53 -257h-282z" />
    <glyph glyph-name="G" unicode="G" horiz-adv-x="1038" 
d="M627 245l34 162h401l-84 -407h-121l-19 65q-65 -49 -144.5 -69.5t-201.5 -20.5q-36 0 -68 2t-68.5 8t-67.5 15t-61.5 24.5t-54 35.5t-42 49t-28 64t-9.5 81t11 100q18 90 61 159.5t96.5 111.5t122.5 68.5t132.5 36t133.5 9.5q235 0 338 -65.5t91 -204.5h-318q0 51 -40 73
q-31 17 -92 17q-188 0 -230 -202q-43 -202 168 -202q125 0 176 90h-116z" />
    <glyph glyph-name="H" unicode="H" horiz-adv-x="1019" 
d="M668 0l59 285h-317l-59 -285h-282l148 714h282l-52 -249h317l52 249h282l-148 -714h-282z" />
    <glyph glyph-name="I" unicode="I" horiz-adv-x="426" 
d="M72 0l148 714h282l-148 -714h-282z" />
    <glyph glyph-name="J" unicode="J" horiz-adv-x="796" 
d="M513 260l94 454h282l-90 -433q-12 -59 -28.5 -102t-47 -83.5t-74 -65.5t-110.5 -40t-155 -15q-71 0 -122.5 6t-93 21t-66 39t-37.5 60t-12 84.5t15 113.5h282q-19 -86 -11 -113q10 -37 64 -37q45 0 71 26t39 85z" />
    <glyph glyph-name="K" unicode="K" horiz-adv-x="981" 
d="M639 0l-139 274l-110 -82l-39 -192h-282l148 714h282l-52 -252l314 252h374l-376 -276l255 -438h-375z" />
    <glyph glyph-name="L" unicode="L" horiz-adv-x="796" 
d="M69 0l148 714h282l-109 -522h437l-39 -192h-719z" />
    <glyph glyph-name="M" unicode="M" horiz-adv-x="1168" 
d="M69 0l148 714h397l31 -415h2l203 415h397l-148 -714h-256l106 510h-2l-256 -510h-214l-44 510h-2l-106 -510h-256z" />
    <glyph glyph-name="N" unicode="N" horiz-adv-x="1019" 
d="M69 0l148 714h322l204 -396h3l82 396h270l-148 -714h-309l-217 400h-2l-83 -400h-270z" />
    <glyph glyph-name="O" unicode="O" horiz-adv-x="1038" 
d="M105 357q12 60 34 110.5t48 87t61 66t68 48.5t75 32.5t74.5 20.5t75 11t69 5t62.5 1q32 0 55.5 -1t59.5 -3.5t63.5 -8.5t61 -15t58 -24.5t49.5 -35.5t40 -48.5t25 -63.5t9 -81.5t-12 -100.5q-12 -60 -34 -110.5t-48 -87t-61.5 -66t-68 -48.5t-74.5 -32.5t-75 -20.5
t-75.5 -11t-69 -5t-62.5 -1q-32 0 -55.5 1t-59.5 3.5t-63.5 8.5t-61 15t-58 24.5t-49.5 35.5t-39.5 48.5t-24.5 63.5t-9 81.5t12 100.5zM405 357q-45 -202 146 -202q185 0 230 202q42 202 -146 202t-230 -202z" />
    <glyph glyph-name="P" unicode="P" horiz-adv-x="944" 
d="M69 0l148 714h582q145 0 196.5 -63t25.5 -186q-22 -110 -101.5 -176.5t-220.5 -66.5h-302l-46 -222h-282zM464 546l-31 -150h182q53 0 79 17t34 57q9 41 -9.5 58.5t-72.5 17.5h-182z" />
    <glyph glyph-name="Q" unicode="Q" horiz-adv-x="1038" 
d="M549 199l142 125l56 -61q22 38 34 94q42 202 -146 202t-230 -202q-45 -202 146 -202q12 0 34 2zM858 -147l-128 142q-37 -9 -91 -14q-59 -6 -126 -6q-32 0 -55.5 1t-59.5 3.5t-63.5 8.5t-61 15t-58 24.5t-49.5 35.5t-39.5 48.5t-24.5 63.5t-9 81.5t12 100.5
q12 60 34 110.5t48 87t61 66t68 48.5t75 32.5t74.5 20.5t75 11t69 5t62.5 1q32 0 55.5 -1t59.5 -3.5t63.5 -8.5t61 -15t58 -24.5t49.5 -35.5t40 -48.5t25 -63.5t9 -81.5t-12 -100.5q-38 -186 -163 -279l85 -94z" />
    <glyph glyph-name="R" unicode="R" horiz-adv-x="962" 
d="M69 0l148 714h594q115 0 164 -26q37 -21 55 -68.5t6 -104.5q-31 -133 -144 -163l-1 -2q69 -21 58 -110l-20 -156q-6 -47 18 -84h-308q-1 3 -2 7t-1 9v9.5t1 12.5t2 13.5t2.5 17t2.5 19t3.5 22.5t4.5 25q13 85 -56 85h-200l-45 -220h-282zM462 534l-28 -134h200
q79 0 92 67q8 38 -10.5 52.5t-57.5 14.5h-196z" />
    <glyph glyph-name="S" unicode="S" horiz-adv-x="962" 
d="M604 255l-313 48q-96 15 -133 68.5t-20 132.5q15 67 55.5 114.5t104.5 73t137 36.5t165 11q233 0 329.5 -58.5t80.5 -175.5h-328q9 39 -31 57q-31 15 -85 15q-111 0 -123 -51q-6 -32 29 -37l327 -50q106 -16 155.5 -68t31.5 -140q-28 -132 -152 -194t-361 -62
q-73 0 -130 4.5t-117 19.5t-97 40.5t-55.5 70t-5.5 105.5h340q-6 -34 20 -51q27 -15 92 -15q112 0 125 58q7 39 -41 48z" />
    <glyph glyph-name="T" unicode="T" horiz-adv-x="796" 
d="M257 0l111 534h-261l37 180h804l-37 -180h-261l-111 -534h-282z" />
    <glyph glyph-name="U" unicode="U" horiz-adv-x="962" 
d="M110 271l92 443h282l-90 -432q-14 -66 16.5 -93.5t103.5 -27.5t114.5 27.5t55.5 93.5l90 432h282l-92 -443q-35 -165 -149.5 -230.5t-339.5 -65.5t-312.5 65.5t-52.5 230.5z" />
    <glyph glyph-name="V" unicode="V" horiz-adv-x="852" 
d="M278 0l-172 714h310l62 -458h2l252 458h310l-468 -714h-296z" />
    <glyph glyph-name="W" unicode="W" horiz-adv-x="1166" 
d="M207 0l-60 714h273l1 -436h2l196 436h225l13 -436h2l183 436h273l-357 -714h-277l-15 396h-2l-180 -396h-277z" />
    <glyph glyph-name="X" unicode="X" horiz-adv-x="888" 
d="M-36 0l398 373l-208 341h331l75 -156l139 156h331l-350 -341l244 -373h-348l-94 184l-170 -184h-348z" />
    <glyph glyph-name="Y" unicode="Y" horiz-adv-x="832" 
d="M275 0l41 201l-210 513h322l78 -280l194 280h322l-424 -513l-41 -201h-282z" />
    <glyph glyph-name="Z" unicode="Z" horiz-adv-x="852" 
d="M22 0l31 151l508 383h-399l37 180h779l-32 -156l-497 -378h407l-37 -180h-797z" />
    <glyph glyph-name="bracketleft" unicode="[" horiz-adv-x="500" 
d="M13 -190l188 904h434l-37 -180h-184l-114 -544h184l-37 -180h-434z" />
    <glyph glyph-name="backslash" unicode="\" horiz-adv-x="444" 
d="M267 -25l-120 764h177l120 -764h-177z" />
    <glyph glyph-name="bracketright" unicode="]" horiz-adv-x="500" 
d="M-26 -190l36 180h184l114 544h-184l37 180h434l-188 -904h-433z" />
    <glyph glyph-name="asciicircum" unicode="^" horiz-adv-x="600" 
d="M478 329l-60 239l-160 -239h-147l250 365h166l98 -365h-147z" />
    <glyph glyph-name="underscore" unicode="_" horiz-adv-x="500" 
d="M-25 -125l10 50h499l-10 -50h-499z" />
    <glyph glyph-name="grave" unicode="`" horiz-adv-x="278" 
d="M174 608l-123 144h303l61 -144h-241z" />
    <glyph glyph-name="a" unicode="a" 
d="M393 381h-250q24 58 56 93.5t83 56.5q91 38 292 38q193 0 264.5 -49.5t45.5 -170.5l-55 -264q-10 -52 6 -85h-256q-4 23 2 54q-98 -76 -290 -76q-133 0 -195 42.5t-41 142.5q35 161 292 172l213 10q39 2 55.5 12t21.5 33q10 53 -105 53q-114 0 -139 -62zM608 225l5 24
q-43 -9 -207 -23q-68 -6 -79 -54q-6 -30 14 -46t66 -16q178 0 201 115z" />
    <glyph glyph-name="b" unicode="b" 
d="M60 0l153 739h250l-53 -254h2q80 77 233 77q132 0 205.5 -74t45.5 -218q-21 -97 -80 -165t-133 -97.5t-159 -29.5q-157 0 -208 80h-2l-12 -58h-242zM366 270q-27 -124 111 -124q135 0 163 124q12 55 -16.5 89.5t-94.5 34.5q-137 0 -163 -124z" />
    <glyph glyph-name="c" unicode="c" 
d="M909 327h-262q7 46 -32 69q-28 17 -87 17q-78 0 -122 -37.5t-57 -97.5q-13 -65 17.5 -101.5t103.5 -36.5q118 0 158 91h262q-22 -65 -60.5 -113t-81.5 -74t-100.5 -41.5t-105.5 -20t-107 -4.5q-91 0 -159 15t-118.5 48t-69 92t-1.5 142q59 294 471 294q184 0 272 -55.5
t79 -186.5z" />
    <glyph glyph-name="d" unicode="d" 
d="M568 0l12 58h-2q-88 -80 -242 -80q-132 0 -206 74.5t-44 217.5q19 97 78 165t134 97.5t159 29.5q153 0 201 -77h2l53 254h250l-153 -739h-242zM616 270q26 124 -113 124q-66 0 -107.5 -34t-53.5 -90q-13 -57 14 -90.5t97 -33.5q136 0 163 124z" />
    <glyph glyph-name="e" unicode="e" 
d="M356 341h298q6 45 -28.5 70.5t-99.5 25.5q-67 0 -108 -22.5t-62 -73.5zM601 164h266q-48 -88 -154 -136q-111 -50 -275 -50q-200 0 -291 74t-61 222q30 141 148.5 218t303.5 77q76 0 135 -10.5t108 -35.5t74.5 -65.5t35 -101t-10.5 -141.5h-550q-7 -36 24.5 -67.5
t106.5 -31.5q92 0 140 48z" />
    <glyph glyph-name="f" unicode="f" horiz-adv-x="519" 
d="M125 0l81 391h-116l32 156h116l12 58q17 76 73 108t177 32q102 0 163 -6l-27 -132h-75q-35 0 -50 -10t-19 -34l-4 -16h135l-32 -156h-135l-81 -391h-250z" />
    <glyph glyph-name="g" unicode="g" horiz-adv-x="888" 
d="M587 46l10 47q-80 -59 -229 -59q-162 0 -233 67t-44 197q28 125 134 194.5t252 69.5t209 -77l13 62h242l-105 -508q-27 -128 -133 -185.5t-299 -57.5q-202 0 -281 44t-75 148h276q0 -28 23 -40q26 -14 80 -14q75 0 111.5 26.5t48.5 85.5zM638 293q11 47 -17.5 77
t-103.5 30q-139 0 -165 -107q-9 -49 18.5 -79t101.5 -30q75 0 116 30t50 79z" />
    <glyph glyph-name="h" unicode="h" horiz-adv-x="832" 
d="M60 0l153 739h250l-54 -260h2q29 32 91 57.5t144 25.5q110 0 165.5 -52.5t32.5 -161.5l-72 -348h-250l58 283q22 99 -75 99q-53 0 -91 -32.5t-52 -97.5l-52 -252h-250z" />
    <glyph glyph-name="i" unicode="i" horiz-adv-x="370" 
d="M60 0l113 547h250l-113 -547h-250zM184 601l29 138h250l-29 -138h-250z" />
    <glyph glyph-name="j" unicode="j" horiz-adv-x="389" 
d="M-64 -190l36 174h45q36 0 49.5 10t20.5 49l105 504h250l-113 -543q-14 -66 -36 -106.5t-57.5 -60.5t-72.5 -26.5t-96 -6.5q-87 0 -131 6zM203 601l29 138h250l-29 -138h-250z" />
    <glyph glyph-name="k" unicode="k" horiz-adv-x="832" 
d="M60 0l153 739h250l-77 -369l226 177h332l-291 -204l203 -343h-338l-92 184l-92 -64l-24 -120h-250z" />
    <glyph glyph-name="l" unicode="l" horiz-adv-x="370" 
d="M60 0l153 739h250l-153 -739h-250z" />
    <glyph glyph-name="m" unicode="m" horiz-adv-x="1166" 
d="M60 0l113 547h242l-15 -75h2q86 90 222 90q76 0 112.5 -23.5t49.5 -67.5q80 91 220 91q97 0 147 -45t31 -140l-78 -377h-250l64 309q8 41 -5 57t-47 16q-86 0 -104 -92l-60 -290h-242l64 309q8 41 -5 57t-47 16q-86 0 -104 -92l-60 -290h-250z" />
    <glyph glyph-name="n" unicode="n" horiz-adv-x="832" 
d="M60 0l113 547h242l-14 -68h2q31 31 96 57t147 26q110 0 165.5 -52.5t32.5 -161.5l-72 -348h-250l58 283q22 99 -75 99q-53 0 -91 -32.5t-52 -97.5l-52 -252h-250z" />
    <glyph glyph-name="o" unicode="o" 
d="M348 274q-13 -67 14.5 -100.5t101.5 -33.5q144 0 170 134q29 133 -115 133q-142 0 -171 -133zM86 274q33 151 144.5 223t322.5 72q210 0 292.5 -72t50.5 -223q-30 -152 -143 -224t-323 -72q-211 0 -292.5 71.5t-51.5 224.5z" />
    <glyph glyph-name="p" unicode="p" 
d="M19 -196l154 743h242l-13 -65h2q86 80 241 80q132 0 205.5 -74t45.5 -218q-21 -97 -80 -165t-133 -97.5t-159 -29.5q-153 0 -201 77h-2l-52 -251h-250zM366 270q-26 -124 112 -124q66 0 108 34t54 90q12 57 -15 90.5t-97 33.5q-137 0 -162 -124z" />
    <glyph glyph-name="q" unicode="q" 
d="M519 -196l52 251h-2q-80 -77 -233 -77q-132 0 -206 74.5t-44 217.5q19 97 78 165t134 97.5t159 29.5q155 0 209 -80h2l13 65h242l-154 -743h-250zM616 270q25 124 -112 124q-70 0 -110 -33.5t-52 -90.5q-12 -55 16 -89.5t94 -34.5q138 0 164 124z" />
    <glyph glyph-name="r" unicode="r" horiz-adv-x="630" 
d="M60 0l113 547h242l-22 -105h2q119 120 258 120q41 0 81 -6l-46 -224q-78 20 -121 20q-50 0 -91 -11.5t-77 -46t-47 -89.5l-42 -205h-250z" />
    <glyph glyph-name="s" unicode="s" horiz-adv-x="815" 
d="M508 192l-238 25q-102 12 -135 52.5t-17 115.5q20 96 118 140t284 44q56 0 102 -4.5t92.5 -16.5t76 -32t45 -54t7.5 -79h-282q5 23 -12 34q-23 14 -71 14q-88 0 -97 -38q-6 -28 60 -34l234 -21q183 -17 151 -165q-21 -104 -123 -149.5t-303 -45.5q-197 0 -277 44t-64 148
h294q-3 -31 22 -44q20 -10 69 -10q83 0 91 42q8 30 -27 34z" />
    <glyph glyph-name="t" unicode="t" horiz-adv-x="537" 
d="M90 391l32 156h116l37 176h250l-37 -176h135l-32 -156h-135l-40 -193q-8 -36 5.5 -45t57.5 -9q20 0 68 2l-30 -146q-81 -12 -185 -12q-119 0 -157.5 35.5t-15.5 142.5l47 225h-116z" />
    <glyph glyph-name="u" unicode="u" horiz-adv-x="832" 
d="M885 547l-113 -547h-242l12 61h-2q-31 -31 -96 -57t-147 -26q-110 0 -164.5 52.5t-33.5 161.5l74 355h250l-60 -290q-22 -99 75 -99q117 0 144 131l53 258h250z" />
    <glyph glyph-name="v" unicode="v" horiz-adv-x="760" 
d="M237 0l-140 547h282l45 -327h2l181 327h282l-366 -547h-286z" />
    <glyph glyph-name="w" unicode="w" horiz-adv-x="1166" 
d="M186 0l-73 547h267l22 -323h2l186 323h212l42 -323h2l166 323h267l-299 -547h-291l-47 286l-165 -286h-291z" />
    <glyph glyph-name="x" unicode="x" horiz-adv-x="832" 
d="M308 0h-318l311 286l-177 261h306l69 -147l129 147h306l-289 -261l197 -286h-318l-76 155z" />
    <glyph glyph-name="y" unicode="y" horiz-adv-x="722" 
d="M24 -187l33 162q20 -3 62 -3q43 0 62 7t39 35l21 30l-150 503h262l63 -281l179 281h262l-439 -636q-45 -63 -87.5 -85t-138.5 -22q-67 0 -168 9z" />
    <glyph glyph-name="z" unicode="z" horiz-adv-x="704" 
d="M25 0l28 138l359 239v2h-291l35 168h627l-30 -144l-340 -227v-2h302l-36 -174h-654z" />
    <glyph glyph-name="braceleft" unicode="{" horiz-adv-x="500" 
d="M30 178l34 168q46 0 77.5 19.5t42.5 74.5l28 133q14 67 60.5 104t111.5 37h220l-35 -168h-55q-58 0 -71 -62l-21 -100q-12 -59 -42.5 -87.5t-90.5 -33.5v-2q58 -5 76.5 -33.5t6.5 -87.5l-21 -100q-13 -62 45 -62h55l-35 -168h-220q-65 0 -96.5 37t-17.5 104l28 133
q11 55 -11.5 74.5t-68.5 19.5z" />
    <glyph glyph-name="bar" unicode="|" horiz-adv-x="278" 
d="M49 -25l159 764h168l-159 -764h-168z" />
    <glyph glyph-name="braceright" unicode="}" horiz-adv-x="500" 
d="M578 346l-34 -168q-47 0 -78 -19.5t-42 -74.5l-28 -133q-14 -67 -60.5 -104t-111.5 -37h-220l35 168h55q58 0 71 62l21 100q12 59 42.5 87.5t90.5 33.5v2q-58 5 -76.5 33.5t-6.5 87.5l21 100q13 62 -45 62h-55l35 168h220q65 0 96.5 -37t17.5 -104l-28 -133
q-11 -55 11.5 -74.5t68.5 -19.5z" />
    <glyph glyph-name="asciitilde" unicode="~" horiz-adv-x="600" 
d="M135 145l-10 126q60 88 143 88q38 0 104 -32q66 -36 95 -36q27 0 50 18t53 52l9 -128q-36 -40 -69 -63t-74 -23q-45 0 -95 33q-52 35 -108 35q-49 0 -98 -70z" />
    <glyph glyph-name="uni00A0" unicode="&#xa0;" horiz-adv-x="408" 
 />
    <glyph glyph-name="exclamdown" unicode="&#xa1;" horiz-adv-x="408" 
d="M34 -167l121 439h212l-63 -439h-270zM140 323l46 224h262l-46 -224h-262z" />
    <glyph glyph-name="cent" unicode="&#xa2;" horiz-adv-x="964" 
d="M470 142l56 271q-121 -11 -146 -134q-14 -66 7 -99.5t83 -37.5zM414 -129l22 109q-176 4 -263.5 73.5t-55.5 222.5q60 284 442 293l20 95h60l-20 -95q167 -4 245.5 -59.5t70.5 -182.5h-262q8 42 -16 60.5t-71 25.5l-56 -271q93 8 129 88h262q-19 -61 -54 -107
t-75.5 -72.5t-94 -42.5t-99.5 -21.5t-102 -6.5l-22 -109h-60z" />
    <glyph glyph-name="sterling" unicode="&#xa3;" horiz-adv-x="964" 
d="M139 297l25 120h61q-21 38 -9 96q41 201 418 201q116 0 191.5 -18t109.5 -51t44 -79t-5 -101l-4 -21h-294q10 51 -5 71q-15 19 -67 19q-83 0 -95 -57q-3 -13 -3 -29q0 -20 1 -31h140l-25 -120h-139q-19 -53 -112 -115l2 -2q49 30 116 30q19 0 102 -10t111 -10
q94 0 179 58l36 -190q-131 -78 -251 -78q-72 0 -192.5 22t-137.5 22q-97 0 -173 -44l-66 169q53 32 80.5 62t36.5 73l2 13h-77z" />
    <glyph glyph-name="currency" unicode="&#xa4;" horiz-adv-x="600" 
d="M246 347q-14 -60 16 -96t82 -36q53 0 96.5 36t57.5 96q12 60 -17.5 96t-81.5 36q-53 0 -97 -36t-56 -96zM41 148l72 59q-27 64 -11 140q17 80 73 144l-50 61l103 82l48 -59q73 42 152 42q78 0 134 -42l72 59l69 -82l-73 -61q28 -65 12 -144q-17 -77 -69 -140l46 -59
l-98 -88l-49 61q-77 -44 -156 -44q-83 0 -138 44l-75 -61z" />
    <glyph glyph-name="yen" unicode="&#xa5;" horiz-adv-x="964" 
d="M341 0l17 84h-181l25 120h181l13 63h-181l25 120h100l-152 307h312l63 -300l189 300h312l-280 -307h100l-25 -120h-181l-13 -63h181l-25 -120h-181l-17 -84h-282z" />
    <glyph glyph-name="brokenbar" unicode="&#xa6;" horiz-adv-x="278" 
d="M49 -25l62 299h168l-62 -299h-168zM146 440l62 299h168l-62 -299h-168z" />
    <glyph glyph-name="section" unicode="&#xa7;" horiz-adv-x="964" 
d="M966 519h-270q9 37 -27 53q-26 11 -93 11q-56 0 -78.5 -9t-26.5 -27q-6 -24 20 -29l287 -54q130 -26 180 -70.5t31 -138.5q-13 -60 -44.5 -95t-80.5 -57q39 -39 25 -100q-21 -100 -124.5 -153.5t-314.5 -53.5q-43 0 -81 3t-84 10.5t-81.5 24t-66 40t-45.5 61.5t-12 86
h270q-2 -42 26.5 -58.5t112.5 -16.5q112 0 121 42q6 28 -32 36l-310 65q-98 21 -147 72.5t-33 131.5q31 132 138 165q-20 38 -13 79q43 202 398 202q179 0 271.5 -52.5t83.5 -167.5zM710 278l-356 81q-24 -22 -29 -45q-8 -37 38 -47l371 -81q19 24 24 41q8 38 -48 51z" />
    <glyph glyph-name="dieresis" unicode="&#xa8;" horiz-adv-x="278" 
d="M-15 614l26 132h242l-27 -132h-241zM304 614l27 132h242l-27 -132h-242z" />
    <glyph glyph-name="copyright" unicode="&#xa9;" horiz-adv-x="800" 
d="M543 297h110q-26 -78 -84 -118t-132 -40q-96 0 -141 60t-25 154q21 96 88.5 155.5t165.5 59.5q75 0 114.5 -39.5t33.5 -115.5h-106q1 31 -17.5 45t-50.5 14q-43 0 -72.5 -31t-41.5 -86q-11 -52 7 -86t59 -34q75 0 92 62zM218 357q-26 -121 32.5 -194.5t167.5 -73.5
t197.5 73.5t114.5 194.5t-33 194.5t-168 73.5t-197 -73.5t-114 -194.5zM92 357q32 158 167.5 270t293.5 112q159 0 247 -111.5t56 -270.5q-34 -159 -168.5 -270.5t-293.5 -111.5q-158 0 -247 112t-55 270z" />
    <glyph glyph-name="ordfeminine" unicode="&#xaa;" horiz-adv-x="566" 
d="M336 594h-186q28 74 90 98q59 22 209 22q58 0 99 -5t73.5 -18t45.5 -38.5t5 -62.5l-35 -167q-6 -28 5 -59h-192v27q-56 -39 -181 -39q-101 0 -144 26t-29 89q16 76 105 94q28 6 64.5 9t98 6t77.5 4q41 4 43 15q6 29 -64 29q-68 0 -84 -30zM467 500l3 14q-27 -5 -122 -14
q-44 -3 -50 -31q-2 -11 10.5 -19t37.5 -8q27 0 51.5 5t45 18.5t24.5 34.5z" />
    <glyph glyph-name="guillemotleft" unicode="&#xab;" horiz-adv-x="685" 
d="M405 195l41 198l250 161l-35 -168l-144 -92l105 -92l-34 -168zM128 195l41 198l250 161l-35 -168l-144 -92l105 -92l-34 -168z" />
    <glyph glyph-name="logicalnot" unicode="&#xac;" horiz-adv-x="600" 
d="M431 108l38 185h-362l30 144h506l-68 -329h-144z" />
    <glyph glyph-name="uni00AD" unicode="&#xad;" horiz-adv-x="481" 
d="M145 207l72 174h363l-72 -174h-363z" />
    <glyph glyph-name="registered" unicode="&#xae;" horiz-adv-x="800" 
d="M421 394h78q29 0 45 11t22 41q4 17 -8 26t-26 10.5t-35 1.5h-57zM488 154l-62 162h-21l-33 -162h-96l84 408h155q89 0 127.5 -28t23.5 -98q-21 -109 -137 -114l65 -168h-106zM218 357q-26 -121 32.5 -194.5t167.5 -73.5t197.5 73.5t114.5 194.5t-33 194.5t-168 73.5
t-197 -73.5t-114 -194.5zM92 357q32 158 167.5 270t293.5 112q159 0 247 -111.5t56 -270.5q-34 -159 -168.5 -270.5t-293.5 -111.5q-158 0 -247 112t-55 270z" />
    <glyph glyph-name="macron" unicode="&#xaf;" horiz-adv-x="278" 
d="M118 614l32 132h570l-33 -132h-569z" />
    <glyph glyph-name="degree" unicode="&#xb0;" horiz-adv-x="400" 
d="M246 555q-6 -29 10 -49t45 -20t53 20t30 49t-10 49t-45 20t-53 -20t-30 -49zM156 555q14 66 70 112.5t122 46.5t103 -46.5t23 -112.5t-70 -112.5t-122 -46.5t-103 46.5t-23 112.5z" />
    <glyph glyph-name="plusminus" unicode="&#xb1;" horiz-adv-x="600" 
d="M314 415l19 91h144l-19 -91h181l-30 -144h-181l-19 -91h-144l19 91h-181l30 144h181zM47 0l29 144h506l-29 -144h-506z" />
    <glyph glyph-name="twosuperior" unicode="&#xb2;" horiz-adv-x="627" 
d="M346 516l155 31q19 3 24 23q3 15 -13 22.5t-55 7.5q-30 0 -49 -3t-39.5 -18t-29.5 -44h-210q13 46 39.5 80t58 52.5t74 29.5t78 14t80.5 3q66 0 114 -6t88.5 -20.5t58 -43.5t8.5 -71q-12 -53 -64 -83t-115 -40l-170 -28q-63 -11 -85 -20v-2h377l-24 -114h-570
q13 57 40 99.5t66 68t77 39.5t86 23z" />
    <glyph glyph-name="threesuperior" unicode="&#xb3;" horiz-adv-x="627" 
d="M316 451l21 102h126q53 0 55 23q10 30 -76 30q-44 0 -59.5 -4.5t-26.5 -19.5h-206q19 73 96.5 102.5t217.5 29.5q154 0 214 -28t46 -91q-10 -66 -107 -85l-1 -2q100 -16 83 -98q-28 -136 -314 -136q-38 0 -64.5 1t-60.5 4t-57 9t-46.5 17t-36 26.5t-18.5 39t-2 52.5h202
q0 -20 19 -29q19 -12 76 -12q39 0 62.5 6.5t30 13.5t9.5 17q4 18 -12 25t-53 7h-118z" />
    <glyph glyph-name="acute" unicode="&#xb4;" horiz-adv-x="278" 
d="M111 608l121 144h303l-183 -144h-241z" />
    <glyph glyph-name="mu" unicode="&#xb5;" horiz-adv-x="832" 
d="M884 547l-112 -547h-242l11 61h-2q-32 -40 -73 -61.5t-76 -21.5q-50 0 -76 40h-2l-44 -214h-249l153 743h250l-60 -290q-22 -99 75 -99q117 0 144 131l53 258h250z" />
    <glyph glyph-name="paragraph" unicode="&#xb6;" horiz-adv-x="666" 
d="M193 -179l100 481q-111 0 -161 51t-29 153q13 63 41.5 105.5t70.5 64t86 30t101 8.5h384l-186 -893h-156l162 779h-95l-162 -779h-156z" />
    <glyph glyph-name="periodcentered" unicode="&#xb7;" horiz-adv-x="408" 
d="M173 244q24 54 77.5 92.5t107.5 38.5t77.5 -38.5t-0.5 -92.5q-20 -53 -76 -92t-109 -39q-55 0 -76.5 38t-0.5 93z" />
    <glyph glyph-name="cedilla" unicode="&#xb8;" horiz-adv-x="278" 
d="M-54 -200l26 54q38 -11 75 -11q48 0 55 29q3 11 -6.5 17t-23.5 6q-13 0 -37 -8l-22 21l79 92h76l-38 -47q20 4 50 4q43 0 67.5 -22.5t17.5 -58.5q-11 -54 -56 -75t-118 -21q-86 0 -145 20z" />
    <glyph glyph-name="onesuperior" unicode="&#xb9;" horiz-adv-x="434" 
d="M239 286l50 239h-138l23 114h28q63 2 98.5 18t60.5 57h153l-89 -428h-186z" />
    <glyph glyph-name="ordmasculine" unicode="&#xba;" horiz-adv-x="566" 
d="M311 537q-7 -33 10 -52t58 -19q83 0 98 71q6 28 -12 45.5t-58 17.5t-65 -17.5t-31 -45.5zM119 537q19 92 92.5 134.5t219.5 42.5q145 0 201 -42.5t37 -134.5q-20 -97 -93.5 -141t-219.5 -44t-201.5 44t-35.5 141z" />
    <glyph glyph-name="guillemotright" unicode="&#xbb;" horiz-adv-x="685" 
d="M184 386l35 168l182 -161l-41 -198l-249 -161l34 168l145 92zM461 386l35 168l182 -161l-41 -198l-249 -161l34 168l145 92z" />
    <glyph glyph-name="onequarter" unicode="&#xbc;" horiz-adv-x="1444" 
d="M753 70l23 111l311 247h252l-51 -248h82l-23 -110h-82l-14 -70h-180l14 70h-332zM1108 180l27 128l-167 -128h140zM239 286l50 239h-138l23 114h28q63 2 98.5 18t60.5 57h153l-89 -428h-186zM289 -20l621 734h128l-621 -734h-128z" />
    <glyph glyph-name="onehalf" unicode="&#xbd;" horiz-adv-x="1444" 
d="M309 -20l621 734h128l-621 -734h-128zM259 286l50 239h-138l23 114h28q63 2 98.5 18t60.5 57h153l-89 -428h-186zM1044 230l139 27q36 9 41 27q5 30 -68 30q-30 0 -49.5 -3t-40 -18t-29.5 -43h-210q17 57 52 94.5t84 54.5t93 23t101 6q52 0 92.5 -3.5t78 -12.5t61 -24.5
t34 -41t3.5 -59.5q-11 -53 -63 -82.5t-115 -40.5l-170 -28q-63 -11 -85 -20l-1 -2h377l-23 -114h-570q13 57 40.5 99.5t66 68t76.5 39.5t85 23z" />
    <glyph glyph-name="threequarters" unicode="&#xbe;" horiz-adv-x="1444" 
d="M438 -20l621 734h128l-621 -734h-128zM335 451l21 102h126q53 0 55 23q10 30 -76 30q-44 0 -59.5 -4.5t-26.5 -19.5h-206q19 73 96.5 102.5t217.5 29.5q154 0 214 -28t46 -91q-10 -66 -107 -85l-1 -2q100 -16 83 -98q-28 -136 -314 -136q-38 0 -64.5 1t-60.5 4t-57 9
t-46.5 17t-36 26.5t-18.5 39t-2 52.5h202q0 -20 19 -29q20 -12 76 -12q39 0 62.5 6.5t30 13.5t9.5 17q4 18 -12 25t-53 7h-118zM1187 180l27 128l-167 -128h140zM832 70l23 111l311 247h252l-51 -248h82l-23 -110h-82l-14 -70h-180l14 70h-332z" />
    <glyph glyph-name="questiondown" unicode="&#xbf;" horiz-adv-x="852" 
d="M567 77h282q-50 -147 -143 -204q-105 -65 -326 -65q-206 0 -288.5 55.5t-61.5 153.5q11 56 45 94.5t118 67.5q102 35 129.5 49t38.5 33h256q-9 -34 -16.5 -51.5t-28.5 -39t-59 -37.5t-101 -34q-47 -14 -67 -30t-25 -42t17 -44.5t80 -18.5q125 0 150 113zM679 547
l-46 -224h-262l46 224h262z" />
    <glyph glyph-name="Agrave" unicode="&#xc0;" horiz-adv-x="888" 
d="M582 256l-34 242h-2l-134 -242h170zM-33 0l452 714h346l156 -714h-300l-13 82h-294l-47 -82h-300zM507 778l-123 144h303l61 -144h-241z" />
    <glyph glyph-name="Aacute" unicode="&#xc1;" horiz-adv-x="888" 
d="M582 256l-34 242h-2l-134 -242h170zM-33 0l452 714h346l156 -714h-300l-13 82h-294l-47 -82h-300zM437 778l121 144h303l-183 -144h-241z" />
    <glyph glyph-name="Acircumflex" unicode="&#xc2;" horiz-adv-x="888" 
d="M582 256l-34 242h-2l-134 -242h170zM-33 0l452 714h346l156 -714h-300l-13 82h-294l-47 -82h-300zM280 778l184 144h358l125 -144h-279l-52 76l-84 -76h-252z" />
    <glyph glyph-name="Atilde" unicode="&#xc3;" horiz-adv-x="888" 
d="M582 256l-34 242h-2l-134 -242h170zM-33 0l452 714h346l156 -714h-300l-13 82h-294l-47 -82h-300zM812 919h106q-66 -156 -183 -156q-28 0 -142 24t-134 24q-26 0 -46 -29h-106q74 155 194 155q23 0 137 -24q103 -24 125 -24q32 0 49 30z" />
    <glyph glyph-name="Adieresis" unicode="&#xc4;" horiz-adv-x="888" 
d="M582 256l-34 242h-2l-134 -242h170zM-33 0l452 714h346l156 -714h-300l-13 82h-294l-47 -82h-300zM326 784l26 132h242l-27 -132h-241zM645 784l27 132h242l-27 -132h-242z" />
    <glyph glyph-name="Aring" unicode="&#xc5;" horiz-adv-x="888" 
d="M582 256l-34 242h-2l-134 -242h170zM-33 0l452 714h346l156 -714h-300l-13 82h-294l-47 -82h-300zM477 870q10 58 59.5 94.5t108.5 36.5q57 0 87.5 -36.5t20.5 -94.5q-13 -59 -62 -97t-106 -34q-57 0 -89 37.5t-19 93.5zM555 870q-6 -25 8 -42.5t39 -17.5t46 17.5
t27 42.5q5 25 -9 42.5t-39 17.5t-46 -17.5t-26 -42.5z" />
    <glyph glyph-name="AE" unicode="&#xc6;" horiz-adv-x="1166" 
d="M-16 0l475 714h816l-36 -174h-348l-20 -96h334l-36 -174h-334l-20 -96h353l-36 -174h-603l24 120h-204l-70 -120h-295zM587 282l55 264h-45l-154 -264h144z" />
    <glyph glyph-name="Ccedilla" unicode="&#xc7;" horiz-adv-x="1019" 
d="M314 -200l26 54q38 -11 75 -11q48 0 55 29q3 11 -6.5 17t-23.5 6q-13 0 -37 -8l-22 21l59 69l-22 1q-387 23 -313 379q12 60 34 110.5t48 87t61 66t68 48.5t75 32.5t74.5 20.5t75 11t69 5t62.5 1q52 0 92 -3t93 -12.5t91 -30.5t71 -53t48.5 -85t10.5 -121h-318
q3 49 -24.5 87t-100.5 38q-188 0 -230 -202q-23 -104 13.5 -153t118.5 -49q68 0 114 29.5t76 93.5h318q-60 -154 -166 -222q-60 -39 -149 -60q-87 -21 -214 -21l-18 -22q20 4 50 4q43 0 67.5 -22.5t17.5 -58.5q-11 -54 -56 -75t-118 -21q-86 0 -145 20z" />
    <glyph glyph-name="Egrave" unicode="&#xc8;" horiz-adv-x="852" 
d="M69 0l148 714h759l-36 -174h-477l-20 -96h443l-36 -174h-443l-20 -96h477l-36 -174h-759zM538 778l-123 144h303l61 -144h-241z" />
    <glyph glyph-name="Eacute" unicode="&#xc9;" horiz-adv-x="852" 
d="M69 0l148 714h759l-36 -174h-477l-20 -96h443l-36 -174h-443l-20 -96h477l-36 -174h-759zM478 778l121 144h303l-183 -144h-241z" />
    <glyph glyph-name="Ecircumflex" unicode="&#xca;" horiz-adv-x="852" 
d="M69 0l148 714h759l-36 -174h-477l-20 -96h443l-36 -174h-443l-20 -96h477l-36 -174h-759zM273 778l184 144h358l125 -144h-279l-52 76l-84 -76h-252z" />
    <glyph glyph-name="Edieresis" unicode="&#xcb;" horiz-adv-x="852" 
d="M69 0l148 714h759l-36 -174h-477l-20 -96h443l-36 -174h-443l-20 -96h477l-36 -174h-759zM316 784l26 132h242l-27 -132h-241zM635 784l27 132h242l-27 -132h-242z" />
    <glyph glyph-name="Igrave" unicode="&#xcc;" horiz-adv-x="426" 
d="M72 0l148 714h282l-148 -714h-282zM262 778l-123 144h303l61 -144h-241z" />
    <glyph glyph-name="Iacute" unicode="&#xcd;" horiz-adv-x="426" 
d="M72 0l148 714h282l-148 -714h-282zM227 778l121 144h303l-183 -144h-241z" />
    <glyph glyph-name="Icircumflex" unicode="&#xce;" horiz-adv-x="426" 
d="M72 0l148 714h282l-148 -714h-282zM43 778l184 144h358l125 -144h-279l-52 76l-84 -76h-252z" />
    <glyph glyph-name="Idieresis" unicode="&#xcf;" horiz-adv-x="426" 
d="M72 0l148 714h282l-148 -714h-282zM86 784l26 132h242l-27 -132h-241zM405 784l27 132h242l-27 -132h-242z" />
    <glyph glyph-name="Eth" unicode="&#xd0;" horiz-adv-x="1019" 
d="M69 0l63 304h-69l26 126h69l59 284h555q181 0 254.5 -86t35.5 -271t-147.5 -271t-290.5 -86h-555zM595 304h-181l-26 -124h162q180 0 218 177q18 87 -16 132t-128 45h-162l-22 -104h181z" />
    <glyph glyph-name="Ntilde" unicode="&#xd1;" horiz-adv-x="1019" 
d="M69 0l148 714h322l204 -396h3l82 396h270l-148 -714h-309l-217 400h-2l-83 -400h-270zM883 919h106q-66 -156 -183 -156q-28 0 -142 24t-134 24q-26 0 -46 -29h-106q74 155 194 155q23 0 137 -24q103 -24 125 -24q32 0 49 30z" />
    <glyph glyph-name="Ograve" unicode="&#xd2;" horiz-adv-x="1038" 
d="M105 357q12 60 34 110.5t48 87t61 66t68 48.5t75 32.5t74.5 20.5t75 11t69 5t62.5 1q32 0 55.5 -1t59.5 -3.5t63.5 -8.5t61 -15t58 -24.5t49.5 -35.5t40 -48.5t25 -63.5t9 -81.5t-12 -100.5q-12 -60 -34 -110.5t-48 -87t-61.5 -66t-68 -48.5t-74.5 -32.5t-75 -20.5
t-75.5 -11t-69 -5t-62.5 -1q-32 0 -55.5 1t-59.5 3.5t-63.5 8.5t-61 15t-58 24.5t-49.5 35.5t-39.5 48.5t-24.5 63.5t-9 81.5t12 100.5zM405 357q-45 -202 146 -202q185 0 230 202q42 202 -146 202t-230 -202zM567 778l-123 144h303l61 -144h-241z" />
    <glyph glyph-name="Oacute" unicode="&#xd3;" horiz-adv-x="1038" 
d="M105 357q12 60 34 110.5t48 87t61 66t68 48.5t75 32.5t74.5 20.5t75 11t69 5t62.5 1q32 0 55.5 -1t59.5 -3.5t63.5 -8.5t61 -15t58 -24.5t49.5 -35.5t40 -48.5t25 -63.5t9 -81.5t-12 -100.5q-12 -60 -34 -110.5t-48 -87t-61.5 -66t-68 -48.5t-74.5 -32.5t-75 -20.5
t-75.5 -11t-69 -5t-62.5 -1q-32 0 -55.5 1t-59.5 3.5t-63.5 8.5t-61 15t-58 24.5t-49.5 35.5t-39.5 48.5t-24.5 63.5t-9 81.5t12 100.5zM405 357q-45 -202 146 -202q185 0 230 202q42 202 -146 202t-230 -202zM591 778l121 144h303l-183 -144h-241z" />
    <glyph glyph-name="Ocircumflex" unicode="&#xd4;" horiz-adv-x="1038" 
d="M105 357q12 60 34 110.5t48 87t61 66t68 48.5t75 32.5t74.5 20.5t75 11t69 5t62.5 1q32 0 55.5 -1t59.5 -3.5t63.5 -8.5t61 -15t58 -24.5t49.5 -35.5t40 -48.5t25 -63.5t9 -81.5t-12 -100.5q-12 -60 -34 -110.5t-48 -87t-61.5 -66t-68 -48.5t-74.5 -32.5t-75 -20.5
t-75.5 -11t-69 -5t-62.5 -1q-32 0 -55.5 1t-59.5 3.5t-63.5 8.5t-61 15t-58 24.5t-49.5 35.5t-39.5 48.5t-24.5 63.5t-9 81.5t12 100.5zM405 357q-45 -202 146 -202q185 0 230 202q42 202 -146 202t-230 -202zM362 778l184 144h358l125 -144h-279l-52 76l-84 -76h-252z" />
    <glyph glyph-name="Otilde" unicode="&#xd5;" horiz-adv-x="1038" 
d="M105 357q12 60 34 110.5t48 87t61 66t68 48.5t75 32.5t74.5 20.5t75 11t69 5t62.5 1q32 0 55.5 -1t59.5 -3.5t63.5 -8.5t61 -15t58 -24.5t49.5 -35.5t40 -48.5t25 -63.5t9 -81.5t-12 -100.5q-12 -60 -34 -110.5t-48 -87t-61.5 -66t-68 -48.5t-74.5 -32.5t-75 -20.5
t-75.5 -11t-69 -5t-62.5 -1q-32 0 -55.5 1t-59.5 3.5t-63.5 8.5t-61 15t-58 24.5t-49.5 35.5t-39.5 48.5t-24.5 63.5t-9 81.5t12 100.5zM405 357q-45 -202 146 -202q185 0 230 202q42 202 -146 202t-230 -202zM890 919h106q-66 -156 -183 -156q-28 0 -142 24t-134 24
q-26 0 -46 -29h-106q74 155 194 155q23 0 137 -24q103 -24 125 -24q32 0 49 30z" />
    <glyph glyph-name="Odieresis" unicode="&#xd6;" horiz-adv-x="1038" 
d="M105 357q12 60 34 110.5t48 87t61 66t68 48.5t75 32.5t74.5 20.5t75 11t69 5t62.5 1q32 0 55.5 -1t59.5 -3.5t63.5 -8.5t61 -15t58 -24.5t49.5 -35.5t40 -48.5t25 -63.5t9 -81.5t-12 -100.5q-12 -60 -34 -110.5t-48 -87t-61.5 -66t-68 -48.5t-74.5 -32.5t-75 -20.5
t-75.5 -11t-69 -5t-62.5 -1q-32 0 -55.5 1t-59.5 3.5t-63.5 8.5t-61 15t-58 24.5t-49.5 35.5t-39.5 48.5t-24.5 63.5t-9 81.5t12 100.5zM405 357q-45 -202 146 -202q185 0 230 202q42 202 -146 202t-230 -202zM401 784l26 132h242l-27 -132h-241zM720 784l27 132h242
l-27 -132h-242z" />
    <glyph glyph-name="multiply" unicode="&#xd7;" horiz-adv-x="600" 
d="M251 253l-117 146l123 102l117 -145l176 145l80 -102l-176 -146l116 -146l-123 -102l-116 145l-177 -145l-80 102z" />
    <glyph glyph-name="Oslash" unicode="&#xd8;" horiz-adv-x="1038" 
d="M399 276l360 240q-35 43 -124 43q-188 0 -230 -202q-11 -47 -6 -81zM787 438l-360 -240q35 -43 124 -43q185 0 230 202q11 49 6 81zM32 31l103 69q-64 92 -30 257q12 60 34 110.5t48 87t61 66t68 48.5t75 32.5t74.5 20.5t75 11t69 5t62.5 1q227 0 321 -67l121 81l39 -71
l-102 -68q63 -92 30 -257q-12 -60 -34 -110.5t-48 -87t-61.5 -66t-68 -48.5t-74.5 -32.5t-75 -20.5t-75.5 -11t-69 -5t-62.5 -1q-226 0 -321 67l-122 -81z" />
    <glyph glyph-name="Ugrave" unicode="&#xd9;" horiz-adv-x="962" 
d="M110 271l92 443h282l-90 -432q-14 -66 16.5 -93.5t103.5 -27.5t114.5 27.5t55.5 93.5l90 432h282l-92 -443q-35 -165 -149.5 -230.5t-339.5 -65.5t-312.5 65.5t-52.5 230.5zM524 778l-123 144h303l61 -144h-241z" />
    <glyph glyph-name="Uacute" unicode="&#xda;" horiz-adv-x="962" 
d="M110 271l92 443h282l-90 -432q-14 -66 16.5 -93.5t103.5 -27.5t114.5 27.5t55.5 93.5l90 432h282l-92 -443q-35 -165 -149.5 -230.5t-339.5 -65.5t-312.5 65.5t-52.5 230.5zM522 778l121 144h303l-183 -144h-241z" />
    <glyph glyph-name="Ucircumflex" unicode="&#xdb;" horiz-adv-x="962" 
d="M110 271l92 443h282l-90 -432q-14 -66 16.5 -93.5t103.5 -27.5t114.5 27.5t55.5 93.5l90 432h282l-92 -443q-35 -165 -149.5 -230.5t-339.5 -65.5t-312.5 65.5t-52.5 230.5zM315 778l184 144h358l125 -144h-279l-52 76l-84 -76h-252z" />
    <glyph glyph-name="Udieresis" unicode="&#xdc;" horiz-adv-x="962" 
d="M110 271l92 443h282l-90 -432q-14 -66 16.5 -93.5t103.5 -27.5t114.5 27.5t55.5 93.5l90 432h282l-92 -443q-35 -165 -149.5 -230.5t-339.5 -65.5t-312.5 65.5t-52.5 230.5zM361 784l26 132h242l-27 -132h-241zM680 784l27 132h242l-27 -132h-242z" />
    <glyph glyph-name="Yacute" unicode="&#xdd;" horiz-adv-x="832" 
d="M275 0l41 201l-210 513h322l78 -280l194 280h322l-424 -513l-41 -201h-282zM457 778l121 144h303l-183 -144h-241z" />
    <glyph glyph-name="Thorn" unicode="&#xde;" horiz-adv-x="944" 
d="M69 0l148 714h282l-20 -94h300q146 0 197 -62.5t26 -186.5q-24 -112 -102.5 -177.5t-220.5 -65.5h-302l-26 -128h-282zM444 452l-31 -150h182q53 0 79.5 17.5t34.5 56.5q8 41 -10.5 58.5t-72.5 17.5h-182z" />
    <glyph glyph-name="germandbls" unicode="&#xdf;" horiz-adv-x="888" 
d="M310 0h-250l100 482q29 142 139 199.5t320 57.5q174 0 250 -49t56 -144q-11 -55 -43.5 -88t-82.5 -40v-2q74 -15 98.5 -61t8.5 -122q-14 -71 -51.5 -121t-90.5 -76t-107.5 -37t-115.5 -11q-116 0 -181 24l35 168q82 -12 122 -12q114 0 130 82q9 42 -19.5 60.5
t-100.5 18.5h-77l27 132h69q91 0 103 58q6 28 -13.5 43t-69.5 15q-80 0 -115 -30t-51 -111z" />
    <glyph glyph-name="agrave" unicode="&#xe0;" 
d="M393 381h-250q24 58 56 93.5t83 56.5q91 38 292 38q193 0 264.5 -49.5t45.5 -170.5l-55 -264q-10 -52 6 -85h-256q-4 23 2 54q-98 -76 -290 -76q-133 0 -195 42.5t-41 142.5q35 161 292 172l213 10q39 2 55.5 12t21.5 33q10 53 -105 53q-114 0 -139 -62zM608 225l5 24
q-43 -9 -207 -23q-68 -6 -79 -54q-6 -30 14 -46t66 -16q178 0 201 115zM514 608l-123 144h303l61 -144h-241z" />
    <glyph glyph-name="aacute" unicode="&#xe1;" 
d="M393 381h-250q24 58 56 93.5t83 56.5q91 38 292 38q193 0 264.5 -49.5t45.5 -170.5l-55 -264q-10 -52 6 -85h-256q-4 23 2 54q-98 -76 -290 -76q-133 0 -195 42.5t-41 142.5q35 161 292 172l213 10q39 2 55.5 12t21.5 33q10 53 -105 53q-114 0 -139 -62zM608 225l5 24
q-43 -9 -207 -23q-68 -6 -79 -54q-6 -30 14 -46t66 -16q178 0 201 115zM431 608l121 144h303l-183 -144h-241z" />
    <glyph glyph-name="acircumflex" unicode="&#xe2;" 
d="M393 381h-250q24 58 56 93.5t83 56.5q91 38 292 38q193 0 264.5 -49.5t45.5 -170.5l-55 -264q-10 -52 6 -85h-256q-4 23 2 54q-98 -76 -290 -76q-133 0 -195 42.5t-41 142.5q35 161 292 172l213 10q39 2 55.5 12t21.5 33q10 53 -105 53q-114 0 -139 -62zM608 225l5 24
q-43 -9 -207 -23q-68 -6 -79 -54q-6 -30 14 -46t66 -16q178 0 201 115zM245 608l184 144h358l125 -144h-279l-52 76l-84 -76h-252z" />
    <glyph glyph-name="atilde" unicode="&#xe3;" 
d="M393 381h-250q24 58 56 93.5t83 56.5q91 38 292 38q193 0 264.5 -49.5t45.5 -170.5l-55 -264q-10 -52 6 -85h-256q-4 23 2 54q-98 -76 -290 -76q-133 0 -195 42.5t-41 142.5q35 161 292 172l213 10q39 2 55.5 12t21.5 33q10 53 -105 53q-114 0 -139 -62zM608 225l5 24
q-43 -9 -207 -23q-68 -6 -79 -54q-6 -30 14 -46t66 -16q178 0 201 115zM777 749h106q-66 -156 -183 -156q-28 0 -142 24t-134 24q-26 0 -46 -29h-106q74 155 194 155q23 0 137 -24q103 -24 125 -24q32 0 49 30z" />
    <glyph glyph-name="adieresis" unicode="&#xe4;" 
d="M393 381h-250q24 58 56 93.5t83 56.5q91 38 292 38q193 0 264.5 -49.5t45.5 -170.5l-55 -264q-10 -52 6 -85h-256q-4 23 2 54q-98 -76 -290 -76q-133 0 -195 42.5t-41 142.5q35 161 292 172l213 10q39 2 55.5 12t21.5 33q10 53 -105 53q-114 0 -139 -62zM608 225l5 24
q-43 -9 -207 -23q-68 -6 -79 -54q-6 -30 14 -46t66 -16q178 0 201 115zM282 614l26 132h242l-27 -132h-241zM601 614l27 132h242l-27 -132h-242z" />
    <glyph glyph-name="aring" unicode="&#xe5;" 
d="M393 381h-250q24 58 56 93.5t83 56.5q91 38 292 38q193 0 264.5 -49.5t45.5 -170.5l-55 -264q-10 -52 6 -85h-256q-4 23 2 54q-98 -76 -290 -76q-133 0 -195 42.5t-41 142.5q35 161 292 172l213 10q39 2 55.5 12t21.5 33q10 53 -105 53q-114 0 -139 -62zM608 225l5 24
q-43 -9 -207 -23q-68 -6 -79 -54q-6 -30 14 -46t66 -16q178 0 201 115zM451 735q10 58 59.5 94.5t108.5 36.5q57 0 87.5 -36.5t20.5 -94.5q-13 -59 -62 -97t-106 -34q-57 0 -89 37.5t-19 93.5zM529 735q-6 -25 8 -42.5t39 -17.5t46 17.5t27 42.5q5 25 -9 42.5t-39 17.5
t-46 -17.5t-26 -42.5z" />
    <glyph glyph-name="ae" unicode="&#xe6;" horiz-adv-x="1166" 
d="M538 225l4 20q-30 -13 -66 -16l-113 -9q-54 -5 -64 -48q-6 -31 16.5 -45t68.5 -14q52 0 97.5 28t56.5 84zM931 164h237q-104 -186 -360 -186q-151 0 -208 74q-39 -33 -121 -53.5t-163 -20.5q-155 0 -218 42t-42 144q30 146 233 160l199 14q37 3 55 12t23 34q7 29 -19 38
t-71 9q-92 0 -105 -55h-236q35 113 155 160q84 33 219 33q152 0 203 -52q89 52 205 52q157 0 230.5 -79t40.5 -238l-7 -35h-452q-12 -101 96 -101q42 0 62 10t44 38zM752 331h227q5 44 -21 72t-71 28t-82.5 -27.5t-52.5 -72.5z" />
    <glyph glyph-name="ccedilla" unicode="&#xe7;" 
d="M243 -200l26 54q38 -11 75 -11q48 0 55 29q3 11 -6.5 17t-23.5 6q-13 0 -37 -8l-22 21l62 72q-55 5 -95 13q-113 22 -164.5 91.5t-25.5 190.5q59 294 471 294q184 0 272 -55.5t79 -186.5h-262q7 46 -32 69q-28 17 -87 17q-78 0 -122 -37.5t-57 -97.5q-13 -65 17.5 -101.5
t103.5 -36.5q118 0 158 91h262q-72 -219 -322 -245q-52 -6 -121 -8l-20 -25q20 4 50 4q43 0 67.5 -22.5t17.5 -58.5q-11 -54 -56 -75t-118 -21q-86 0 -145 20z" />
    <glyph glyph-name="egrave" unicode="&#xe8;" 
d="M356 341h298q6 45 -28.5 70.5t-99.5 25.5q-67 0 -108 -22.5t-62 -73.5zM601 164h266q-48 -88 -154 -136q-111 -50 -275 -50q-200 0 -291 74t-61 222q30 141 148.5 218t303.5 77q76 0 135 -10.5t108 -35.5t74.5 -65.5t35 -101t-10.5 -141.5h-550q-7 -36 24.5 -67.5
t106.5 -31.5q92 0 140 48zM443 608l-123 144h303l61 -144h-241z" />
    <glyph glyph-name="eacute" unicode="&#xe9;" 
d="M356 341h298q6 45 -28.5 70.5t-99.5 25.5q-67 0 -108 -22.5t-62 -73.5zM601 164h266q-48 -88 -154 -136q-111 -50 -275 -50q-200 0 -291 74t-61 222q30 141 148.5 218t303.5 77q76 0 135 -10.5t108 -35.5t74.5 -65.5t35 -101t-10.5 -141.5h-550q-7 -36 24.5 -67.5
t106.5 -31.5q92 0 140 48zM421 608l121 144h303l-183 -144h-241z" />
    <glyph glyph-name="ecircumflex" unicode="&#xea;" 
d="M356 341h298q6 45 -28.5 70.5t-99.5 25.5q-67 0 -108 -22.5t-62 -73.5zM601 164h266q-48 -88 -154 -136q-111 -50 -275 -50q-200 0 -291 74t-61 222q30 141 148.5 218t303.5 77q76 0 135 -10.5t108 -35.5t74.5 -65.5t35 -101t-10.5 -141.5h-550q-7 -36 24.5 -67.5
t106.5 -31.5q92 0 140 48zM231 608l184 144h358l125 -144h-279l-52 76l-84 -76h-252z" />
    <glyph glyph-name="edieresis" unicode="&#xeb;" 
d="M356 341h298q6 45 -28.5 70.5t-99.5 25.5q-67 0 -108 -22.5t-62 -73.5zM601 164h266q-48 -88 -154 -136q-111 -50 -275 -50q-200 0 -291 74t-61 222q30 141 148.5 218t303.5 77q76 0 135 -10.5t108 -35.5t74.5 -65.5t35 -101t-10.5 -141.5h-550q-7 -36 24.5 -67.5
t106.5 -31.5q92 0 140 48zM281 614l26 132h242l-27 -132h-241zM600 614l27 132h242l-27 -132h-242z" />
    <glyph glyph-name="igrave" unicode="&#xec;" horiz-adv-x="370" 
d="M60 0l113 547h250l-113 -547h-250zM183 608l-123 144h303l61 -144h-241z" />
    <glyph glyph-name="iacute" unicode="&#xed;" horiz-adv-x="370" 
d="M60 0l113 547h250l-113 -547h-250zM181 608l121 144h303l-183 -144h-241z" />
    <glyph glyph-name="icircumflex" unicode="&#xee;" horiz-adv-x="370" 
d="M60 0l113 547h250l-113 -547h-250zM-16 608l184 144h358l125 -144h-279l-52 76l-84 -76h-252z" />
    <glyph glyph-name="idieresis" unicode="&#xef;" horiz-adv-x="370" 
d="M60 0l113 547h250l-113 -547h-250zM24 614l26 132h242l-27 -132h-241zM343 614l27 132h242l-27 -132h-242z" />
    <glyph glyph-name="eth" unicode="&#xf0;" 
d="M341 237q-8 -39 22 -68t101 -29q70 0 112.5 29t50.5 68q7 38 -23 67t-100 29t-113 -29t-50 -67zM282 578l112 47q-40 14 -106 28l152 129q111 -17 199 -56l142 58l77 -52l-128 -53q220 -147 168 -397q-34 -159 -145 -231.5t-323 -72.5q-209 0 -293.5 65t-57.5 194
q26 129 128.5 193.5t262.5 64.5q117 0 172 -49l3 2q-41 84 -147 135l-162 -67z" />
    <glyph glyph-name="ntilde" unicode="&#xf1;" horiz-adv-x="832" 
d="M60 0l113 547h242l-14 -68h2q31 31 96 57t147 26q110 0 165.5 -52.5t32.5 -161.5l-72 -348h-250l58 283q22 99 -75 99q-53 0 -91 -32.5t-52 -97.5l-52 -252h-250zM756 749h106q-66 -156 -183 -156q-28 0 -142 24t-134 24q-26 0 -46 -29h-106q74 155 194 155q23 0 137 -24
q103 -24 125 -24q32 0 49 30z" />
    <glyph glyph-name="ograve" unicode="&#xf2;" 
d="M348 274q-13 -67 14.5 -100.5t101.5 -33.5q144 0 170 134q29 133 -115 133q-142 0 -171 -133zM86 274q33 151 144.5 223t322.5 72q210 0 292.5 -72t50.5 -223q-30 -152 -143 -224t-323 -72q-211 0 -292.5 71.5t-51.5 224.5zM450 608l-123 144h303l61 -144h-241z" />
    <glyph glyph-name="oacute" unicode="&#xf3;" 
d="M348 274q-13 -67 14.5 -100.5t101.5 -33.5q144 0 170 134q29 133 -115 133q-142 0 -171 -133zM86 274q33 151 144.5 223t322.5 72q210 0 292.5 -72t50.5 -223q-30 -152 -143 -224t-323 -72q-211 0 -292.5 71.5t-51.5 224.5zM435 608l121 144h303l-183 -144h-241z" />
    <glyph glyph-name="ocircumflex" unicode="&#xf4;" 
d="M348 274q-13 -67 14.5 -100.5t101.5 -33.5q144 0 170 134q29 133 -115 133q-142 0 -171 -133zM86 274q33 151 144.5 223t322.5 72q210 0 292.5 -72t50.5 -223q-30 -152 -143 -224t-323 -72q-211 0 -292.5 71.5t-51.5 224.5zM242 608l184 144h358l125 -144h-279l-52 76
l-84 -76h-252z" />
    <glyph glyph-name="otilde" unicode="&#xf5;" 
d="M348 274q-13 -67 14.5 -100.5t101.5 -33.5q144 0 170 134q29 133 -115 133q-142 0 -171 -133zM86 274q33 151 144.5 223t322.5 72q210 0 292.5 -72t50.5 -223q-30 -152 -143 -224t-323 -72q-211 0 -292.5 71.5t-51.5 224.5zM775 749h106q-66 -156 -183 -156
q-28 0 -142 24t-134 24q-26 0 -46 -29h-106q74 155 194 155q23 0 137 -24q103 -24 125 -24q32 0 49 30z" />
    <glyph glyph-name="odieresis" unicode="&#xf6;" 
d="M348 274q-13 -67 14.5 -100.5t101.5 -33.5q144 0 170 134q29 133 -115 133q-142 0 -171 -133zM86 274q33 151 144.5 223t322.5 72q210 0 292.5 -72t50.5 -223q-30 -152 -143 -224t-323 -72q-211 0 -292.5 71.5t-51.5 224.5zM282 614l26 132h242l-27 -132h-241zM601 614
l27 132h242l-27 -132h-242z" />
    <glyph glyph-name="divide" unicode="&#xf7;" horiz-adv-x="600" 
d="M84 181l30 144h506l-30 -144h-506zM292 469q10 44 46 74.5t81 30.5q42 0 67.5 -31t15.5 -74q-10 -44 -46 -74.5t-81 -30.5q-43 0 -68 31t-15 74zM202 37q10 44 46 74.5t81 30.5q43 0 68 -31t15 -74q-8 -44 -45.5 -74.5t-81.5 -30.5q-43 0 -67 30.5t-16 74.5z" />
    <glyph glyph-name="oslash" unicode="&#xf8;" 
d="M345 221l262 165q-31 21 -88 21q-142 0 -171 -133q-7 -33 -3 -53zM638 327l-262 -165q26 -22 88 -22q144 0 170 134q7 30 4 53zM22 16l92 59q-54 70 -28 199q33 151 144.5 223t322.5 72q177 0 262 -51l113 72l33 -60l-92 -58q54 -70 27 -198q-30 -152 -143 -224t-323 -72
q-178 0 -263 52l-115 -73z" />
    <glyph glyph-name="ugrave" unicode="&#xf9;" horiz-adv-x="832" 
d="M885 547l-113 -547h-242l12 61h-2q-31 -31 -96 -57t-147 -26q-110 0 -164.5 52.5t-33.5 161.5l74 355h250l-60 -290q-22 -99 75 -99q117 0 144 131l53 258h250zM424 608l-123 144h303l61 -144h-241z" />
    <glyph glyph-name="uacute" unicode="&#xfa;" horiz-adv-x="832" 
d="M885 547l-113 -547h-242l12 61h-2q-31 -31 -96 -57t-147 -26q-110 0 -164.5 52.5t-33.5 161.5l74 355h250l-60 -290q-22 -99 75 -99q117 0 144 131l53 258h250zM412 608l121 144h303l-183 -144h-241z" />
    <glyph glyph-name="ucircumflex" unicode="&#xfb;" horiz-adv-x="832" 
d="M885 547l-113 -547h-242l12 61h-2q-31 -31 -96 -57t-147 -26q-110 0 -164.5 52.5t-33.5 161.5l74 355h250l-60 -290q-22 -99 75 -99q117 0 144 131l53 258h250zM222 608l184 144h358l125 -144h-279l-52 76l-84 -76h-252z" />
    <glyph glyph-name="udieresis" unicode="&#xfc;" horiz-adv-x="832" 
d="M885 547l-113 -547h-242l12 61h-2q-31 -31 -96 -57t-147 -26q-110 0 -164.5 52.5t-33.5 161.5l74 355h250l-60 -290q-22 -99 75 -99q117 0 144 131l53 258h250zM261 614l26 132h242l-27 -132h-241zM580 614l27 132h242l-27 -132h-242z" />
    <glyph glyph-name="yacute" unicode="&#xfd;" horiz-adv-x="722" 
d="M24 -187l33 162q20 -3 62 -3q43 0 62 7t39 35l21 30l-150 503h262l63 -281l179 281h262l-439 -636q-45 -63 -87.5 -85t-138.5 -22q-67 0 -168 9zM352 608l121 144h303l-183 -144h-241z" />
    <glyph glyph-name="thorn" unicode="&#xfe;" 
d="M19 -196l194 935h250l-53 -254h2q80 77 233 77q132 0 205.5 -74t45.5 -218q-21 -97 -80 -165t-133 -97.5t-159 -29.5q-153 0 -201 77h-2l-52 -251h-250zM366 270q-26 -124 112 -124q66 0 108 34t54 90q12 57 -15 90.5t-97 33.5q-137 0 -162 -124z" />
    <glyph glyph-name="ydieresis" unicode="&#xff;" horiz-adv-x="722" 
d="M24 -187l33 162q20 -3 62 -3q43 0 62 7t39 35l21 30l-150 503h262l63 -281l179 281h262l-439 -636q-45 -63 -87.5 -85t-138.5 -22q-67 0 -168 9zM201 614l26 132h242l-27 -132h-241zM520 614l27 132h242l-27 -132h-242z" />
    <glyph glyph-name="Amacron" unicode="&#x100;" horiz-adv-x="888" 
d="M582 256l-34 242h-2l-134 -242h170zM-33 0l452 714h346l156 -714h-300l-13 82h-294l-47 -82h-300zM307 784l32 132h570l-33 -132h-569z" />
    <glyph glyph-name="amacron" unicode="&#x101;" 
d="M393 381h-250q24 58 56 93.5t83 56.5q91 38 292 38q193 0 264.5 -49.5t45.5 -170.5l-55 -264q-10 -52 6 -85h-256q-4 23 2 54q-98 -76 -290 -76q-133 0 -195 42.5t-41 142.5q35 161 292 172l213 10q39 2 55.5 12t21.5 33q10 53 -105 53q-114 0 -139 -62zM608 225l5 24
q-43 -9 -207 -23q-68 -6 -79 -54q-6 -30 14 -46t66 -16q178 0 201 115zM276 614l32 132h570l-33 -132h-569z" />
    <glyph glyph-name="Abreve" unicode="&#x102;" horiz-adv-x="888" 
d="M582 256l-34 242h-2l-134 -242h170zM-33 0l452 714h346l156 -714h-300l-13 82h-294l-47 -82h-300zM728 929h132q-36 -92 -107 -127q-61 -30 -166 -30q-106 0 -157.5 33t-51.5 124h132q2 -27 30 -36q17 -7 70 -7q93 0 118 43z" />
    <glyph glyph-name="abreve" unicode="&#x103;" 
d="M393 381h-250q24 58 56 93.5t83 56.5q91 38 292 38q193 0 264.5 -49.5t45.5 -170.5l-55 -264q-10 -52 6 -85h-256q-4 23 2 54q-98 -76 -290 -76q-133 0 -195 42.5t-41 142.5q35 161 292 172l213 10q39 2 55.5 12t21.5 33q10 53 -105 53q-114 0 -139 -62zM608 225l5 24
q-43 -9 -207 -23q-68 -6 -79 -54q-6 -30 14 -46t66 -16q178 0 201 115zM686 759h132q-36 -92 -107 -127q-61 -30 -166 -30q-106 0 -157.5 33t-51.5 124h132q2 -27 30 -36q17 -7 70 -7q93 0 118 43z" />
    <glyph glyph-name="Aogonek" unicode="&#x104;" horiz-adv-x="888" 
d="M-33 0l452 714h346l156 -714h-172q-49 -37 -71 -61t-27 -50q-3 -18 6.5 -28t27.5 -10q33 0 75 12l-6 -60q-78 -23 -158 -23q-63 0 -91 24.5t-19 64.5q13 65 135 131l-13 82h-294l-47 -82h-300zM582 256l-34 242h-2l-134 -242h170z" />
    <glyph glyph-name="aogonek" unicode="&#x105;" 
d="M393 381h-250q24 58 56 93.5t83 56.5q91 38 292 38q193 0 264.5 -49.5t45.5 -170.5l-55 -264q-10 -52 6 -85h-128q-49 -37 -71 -61t-27 -50q-3 -18 6.5 -28t27.5 -10q33 0 75 12l-6 -60q-78 -23 -158 -23q-63 0 -91 24.5t-19 64.5q13 65 135 131q-4 23 2 54
q-98 -76 -290 -76q-133 0 -195 42.5t-41 142.5q35 161 292 172l213 10q39 2 55.5 12t21.5 33q10 53 -105 53q-114 0 -139 -62zM608 225l5 24q-43 -9 -207 -23q-68 -6 -79 -54q-6 -30 14 -46t66 -16q178 0 201 115z" />
    <glyph glyph-name="Cacute" unicode="&#x106;" horiz-adv-x="1019" 
d="M727 278h318q-60 -154 -166 -222q-125 -81 -366 -81q-32 0 -55.5 1t-59.5 3.5t-63.5 8.5t-61 15t-58 24.5t-49.5 35.5t-39.5 48.5t-24.5 63.5t-9 81.5t12 100.5q12 60 34 110.5t48 87t61 66t68 48.5t75 32.5t74.5 20.5t75 11t69 5t62.5 1q52 0 92 -3t93 -12.5t91 -30.5
t71 -53t48.5 -85t10.5 -121h-318q3 49 -24.5 87t-100.5 38q-188 0 -230 -202q-23 -104 13.5 -153t118.5 -49q68 0 114 29.5t76 93.5zM561 778l121 144h303l-183 -144h-241z" />
    <glyph glyph-name="cacute" unicode="&#x107;" 
d="M909 327h-262q7 46 -32 69q-28 17 -87 17q-78 0 -122 -37.5t-57 -97.5q-13 -65 17.5 -101.5t103.5 -36.5q118 0 158 91h262q-22 -65 -60.5 -113t-81.5 -74t-100.5 -41.5t-105.5 -20t-107 -4.5q-91 0 -159 15t-118.5 48t-69 92t-1.5 142q59 294 471 294q184 0 272 -55.5
t79 -186.5zM451 608l121 144h303l-183 -144h-241z" />
    <glyph glyph-name="Ccircumflex" unicode="&#x108;" horiz-adv-x="1019" 
d="M727 278h318q-60 -154 -166 -222q-125 -81 -366 -81q-32 0 -55.5 1t-59.5 3.5t-63.5 8.5t-61 15t-58 24.5t-49.5 35.5t-39.5 48.5t-24.5 63.5t-9 81.5t12 100.5q12 60 34 110.5t48 87t61 66t68 48.5t75 32.5t74.5 20.5t75 11t69 5t62.5 1q52 0 92 -3t93 -12.5t91 -30.5
t71 -53t48.5 -85t10.5 -121h-318q3 49 -24.5 87t-100.5 38q-188 0 -230 -202q-23 -104 13.5 -153t118.5 -49q68 0 114 29.5t76 93.5zM349 778l184 144h358l125 -144h-279l-52 76l-84 -76h-252z" />
    <glyph glyph-name="ccircumflex" unicode="&#x109;" 
d="M909 327h-262q7 46 -32 69q-28 17 -87 17q-78 0 -122 -37.5t-57 -97.5q-13 -65 17.5 -101.5t103.5 -36.5q118 0 158 91h262q-22 -65 -60.5 -113t-81.5 -74t-100.5 -41.5t-105.5 -20t-107 -4.5q-91 0 -159 15t-118.5 48t-69 92t-1.5 142q59 294 471 294q184 0 272 -55.5
t79 -186.5zM247 608l184 144h358l125 -144h-279l-52 76l-84 -76h-252z" />
    <glyph glyph-name="Cdotaccent" unicode="&#x10a;" horiz-adv-x="1019" 
d="M727 278h318q-60 -154 -166 -222q-125 -81 -366 -81q-32 0 -55.5 1t-59.5 3.5t-63.5 8.5t-61 15t-58 24.5t-49.5 35.5t-39.5 48.5t-24.5 63.5t-9 81.5t12 100.5q12 60 34 110.5t48 87t61 66t68 48.5t75 32.5t74.5 20.5t75 11t69 5t62.5 1q52 0 92 -3t93 -12.5t91 -30.5
t71 -53t48.5 -85t10.5 -121h-318q3 49 -24.5 87t-100.5 38q-188 0 -230 -202q-23 -104 13.5 -153t118.5 -49q68 0 114 29.5t76 93.5zM550 784l27 132h242l-27 -132h-242z" />
    <glyph glyph-name="cdotaccent" unicode="&#x10b;" 
d="M909 327h-262q7 46 -32 69q-28 17 -87 17q-78 0 -122 -37.5t-57 -97.5q-13 -65 17.5 -101.5t103.5 -36.5q118 0 158 91h262q-22 -65 -60.5 -113t-81.5 -74t-100.5 -41.5t-105.5 -20t-107 -4.5q-91 0 -159 15t-118.5 48t-69 92t-1.5 142q59 294 471 294q184 0 272 -55.5
t79 -186.5zM443 614l27 132h242l-27 -132h-242z" />
    <glyph glyph-name="Ccaron" unicode="&#x10c;" horiz-adv-x="1019" 
d="M727 278h318q-60 -154 -166 -222q-125 -81 -366 -81q-32 0 -55.5 1t-59.5 3.5t-63.5 8.5t-61 15t-58 24.5t-49.5 35.5t-39.5 48.5t-24.5 63.5t-9 81.5t12 100.5q12 60 34 110.5t48 87t61 66t68 48.5t75 32.5t74.5 20.5t75 11t69 5t62.5 1q52 0 92 -3t93 -12.5t91 -30.5
t71 -53t48.5 -85t10.5 -121h-318q3 49 -24.5 87t-100.5 38q-188 0 -230 -202q-23 -104 13.5 -153t118.5 -49q68 0 114 29.5t76 93.5zM485 778l-124 144h278l53 -76l83 76h253l-185 -144h-358z" />
    <glyph glyph-name="ccaron" unicode="&#x10d;" 
d="M909 327h-262q7 46 -32 69q-28 17 -87 17q-78 0 -122 -37.5t-57 -97.5q-13 -65 17.5 -101.5t103.5 -36.5q118 0 158 91h262q-22 -65 -60.5 -113t-81.5 -74t-100.5 -41.5t-105.5 -20t-107 -4.5q-91 0 -159 15t-118.5 48t-69 92t-1.5 142q59 294 471 294q184 0 272 -55.5
t79 -186.5zM376 608l-124 144h278l53 -76l83 76h253l-185 -144h-358z" />
    <glyph glyph-name="Dcaron" unicode="&#x10e;" horiz-adv-x="1019" 
d="M462 534l-74 -354h162q180 0 218 177q18 87 -16 132t-128 45h-162zM69 0l148 714h549q188 0 261.5 -82.5t34.5 -274.5q-38 -185 -147.5 -271t-290.5 -86h-555zM436 778l-124 144h278l53 -76l83 76h253l-185 -144h-358z" />
    <glyph glyph-name="dcaron" unicode="&#x10f;" horiz-adv-x="1086" 
d="M568 0l12 58h-2q-88 -80 -242 -80q-132 0 -206 74.5t-44 217.5q19 97 78 165t134 97.5t159 29.5q153 0 201 -77h2l53 254h250l-153 -739h-242zM616 270q26 124 -113 124q-66 0 -107.5 -34t-53.5 -90q-13 -57 14 -90.5t97 -33.5q136 0 163 124zM978 577l63 162h237
l-118 -162h-182z" />
    <glyph glyph-name="Dcroat" unicode="&#x110;" horiz-adv-x="1019" 
d="M69 0l63 304h-69l26 126h69l59 284h555q181 0 254.5 -86t35.5 -271t-147.5 -271t-290.5 -86h-555zM595 304h-181l-26 -124h162q180 0 218 177q18 87 -16 132t-128 45h-162l-22 -104h181z" />
    <glyph glyph-name="dcroat" unicode="&#x111;" horiz-adv-x="938" 
d="M568 0l12 58h-2q-88 -80 -242 -80q-132 0 -206 74.5t-44 217.5q19 97 78 165t134 97.5t159 29.5q153 0 201 -77h2l18 89h-138l26 102h134l13 63h250l-13 -63h121l-22 -102h-120l-119 -574h-242zM616 270q26 124 -113 124q-66 0 -107.5 -34t-53.5 -90q-13 -57 14 -90.5
t97 -33.5q136 0 163 124z" />
    <glyph glyph-name="Emacron" unicode="&#x112;" horiz-adv-x="852" 
d="M69 0l148 714h759l-36 -174h-477l-20 -96h443l-36 -174h-443l-20 -96h477l-36 -174h-759zM315 784l32 132h570l-33 -132h-569z" />
    <glyph glyph-name="emacron" unicode="&#x113;" 
d="M356 341h298q6 45 -28.5 70.5t-99.5 25.5q-67 0 -108 -22.5t-62 -73.5zM601 164h266q-48 -88 -154 -136q-111 -50 -275 -50q-200 0 -291 74t-61 222q30 141 148.5 218t303.5 77q76 0 135 -10.5t108 -35.5t74.5 -65.5t35 -101t-10.5 -141.5h-550q-7 -36 24.5 -67.5
t106.5 -31.5q92 0 140 48zM270 614l32 132h570l-33 -132h-569z" />
    <glyph glyph-name="Ebreve" unicode="&#x114;" horiz-adv-x="852" 
d="M69 0l148 714h759l-36 -174h-477l-20 -96h443l-36 -174h-443l-20 -96h477l-36 -174h-759zM722 929h132q-36 -92 -107 -127q-61 -30 -166 -30q-106 0 -157.5 33t-51.5 124h132q2 -27 30 -36q17 -7 70 -7q93 0 118 43z" />
    <glyph glyph-name="ebreve" unicode="&#x115;" 
d="M356 341h298q6 45 -28.5 70.5t-99.5 25.5q-67 0 -108 -22.5t-62 -73.5zM601 164h266q-48 -88 -154 -136q-111 -50 -275 -50q-200 0 -291 74t-61 222q30 141 148.5 218t303.5 77q76 0 135 -10.5t108 -35.5t74.5 -65.5t35 -101t-10.5 -141.5h-550q-7 -36 24.5 -67.5
t106.5 -31.5q92 0 140 48zM678 759h132q-36 -92 -107 -127q-61 -30 -166 -30q-106 0 -157.5 33t-51.5 124h132q2 -27 30 -36q17 -7 70 -7q93 0 118 43z" />
    <glyph glyph-name="Edotaccent" unicode="&#x116;" horiz-adv-x="852" 
d="M69 0l148 714h759l-36 -174h-477l-20 -96h443l-36 -174h-443l-20 -96h477l-36 -174h-759zM477 784l27 132h242l-27 -132h-242z" />
    <glyph glyph-name="edotaccent" unicode="&#x117;" 
d="M356 341h298q6 45 -28.5 70.5t-99.5 25.5q-67 0 -108 -22.5t-62 -73.5zM601 164h266q-48 -88 -154 -136q-111 -50 -275 -50q-200 0 -291 74t-61 222q30 141 148.5 218t303.5 77q76 0 135 -10.5t108 -35.5t74.5 -65.5t35 -101t-10.5 -141.5h-550q-7 -36 24.5 -67.5
t106.5 -31.5q92 0 140 48zM426 614l27 132h242l-27 -132h-242z" />
    <glyph glyph-name="Eogonek" unicode="&#x118;" horiz-adv-x="852" 
d="M828 0h-29q-41 -30 -59 -44t-34.5 -32t-19.5 -35q-3 -18 6.5 -28t27.5 -10q33 0 75 12l-6 -60q-78 -23 -158 -23q-63 0 -91 24.5t-19 64.5q14 68 166 131h-618l148 714h759l-36 -174h-477l-20 -96h443l-36 -174h-443l-20 -96h477z" />
    <glyph glyph-name="eogonek" unicode="&#x119;" 
d="M601 164h266q-48 -88 -154 -136q-50 -23 -121 -37q-28 -5 -74 -10q-13 -10 -32 -25t-20 -16q-30 -27 -34 -51q-3 -18 6.5 -28t27.5 -10q33 0 75 12l-6 -60q-78 -23 -158 -23q-63 0 -91 24.5t-19 64.5q8 41 55 73q32 22 63 38q-157 7 -237 71q-93 74 -62 223
q30 141 148.5 218t303.5 77q76 0 135 -10.5t108 -35.5t74.5 -65.5t35 -101t-10.5 -141.5h-550q-7 -36 24.5 -67.5t106.5 -31.5q92 0 140 48zM356 341h298q6 45 -28.5 70.5t-99.5 25.5q-67 0 -108 -22.5t-62 -73.5z" />
    <glyph glyph-name="Ecaron" unicode="&#x11a;" horiz-adv-x="852" 
d="M69 0l148 714h759l-36 -174h-477l-20 -96h443l-36 -174h-443l-20 -96h477l-36 -174h-759zM405 778l-124 144h278l53 -76l83 76h253l-185 -144h-358z" />
    <glyph glyph-name="ecaron" unicode="&#x11b;" 
d="M356 341h298q6 45 -28.5 70.5t-99.5 25.5q-67 0 -108 -22.5t-62 -73.5zM601 164h266q-48 -88 -154 -136q-111 -50 -275 -50q-200 0 -291 74t-61 222q30 141 148.5 218t303.5 77q76 0 135 -10.5t108 -35.5t74.5 -65.5t35 -101t-10.5 -141.5h-550q-7 -36 24.5 -67.5
t106.5 -31.5q92 0 140 48zM356 608l-124 144h278l53 -76l83 76h253l-185 -144h-358z" />
    <glyph glyph-name="Gcircumflex" unicode="&#x11c;" horiz-adv-x="1038" 
d="M627 245l34 162h401l-84 -407h-121l-19 65q-65 -49 -144.5 -69.5t-201.5 -20.5q-36 0 -68 2t-68.5 8t-67.5 15t-61.5 24.5t-54 35.5t-42 49t-28 64t-9.5 81t11 100q18 90 61 159.5t96.5 111.5t122.5 68.5t132.5 36t133.5 9.5q235 0 338 -65.5t91 -204.5h-318q0 51 -40 73
q-31 17 -92 17q-188 0 -230 -202q-43 -202 168 -202q125 0 176 90h-116zM344 778l184 144h358l125 -144h-279l-52 76l-84 -76h-252z" />
    <glyph glyph-name="gcircumflex" unicode="&#x11d;" horiz-adv-x="888" 
d="M587 46l10 47q-80 -59 -229 -59q-162 0 -233 67t-44 197q28 125 134 194.5t252 69.5t209 -77l13 62h242l-105 -508q-27 -128 -133 -185.5t-299 -57.5q-202 0 -281 44t-75 148h276q0 -28 23 -40q26 -14 80 -14q75 0 111.5 26.5t48.5 85.5zM638 293q11 47 -17.5 77
t-103.5 30q-139 0 -165 -107q-9 -49 18.5 -79t101.5 -30q75 0 116 30t50 79zM252 608l184 144h358l125 -144h-279l-52 76l-84 -76h-252z" />
    <glyph glyph-name="Gbreve" unicode="&#x11e;" horiz-adv-x="1038" 
d="M627 245l34 162h401l-84 -407h-121l-19 65q-65 -49 -144.5 -69.5t-201.5 -20.5q-36 0 -68 2t-68.5 8t-67.5 15t-61.5 24.5t-54 35.5t-42 49t-28 64t-9.5 81t11 100q18 90 61 159.5t96.5 111.5t122.5 68.5t132.5 36t133.5 9.5q235 0 338 -65.5t91 -204.5h-318q0 51 -40 73
q-31 17 -92 17q-188 0 -230 -202q-43 -202 168 -202q125 0 176 90h-116zM798 929h132q-36 -92 -107 -127q-61 -30 -166 -30q-106 0 -157.5 33t-51.5 124h132q2 -27 30 -36q17 -7 70 -7q93 0 118 43z" />
    <glyph glyph-name="gbreve" unicode="&#x11f;" horiz-adv-x="888" 
d="M587 46l10 47q-80 -59 -229 -59q-162 0 -233 67t-44 197q28 125 134 194.5t252 69.5t209 -77l13 62h242l-105 -508q-27 -128 -133 -185.5t-299 -57.5q-202 0 -281 44t-75 148h276q0 -28 23 -40q26 -14 80 -14q75 0 111.5 26.5t48.5 85.5zM638 293q11 47 -17.5 77
t-103.5 30q-139 0 -165 -107q-9 -49 18.5 -79t101.5 -30q75 0 116 30t50 79zM686 759h132q-36 -92 -107 -127q-61 -30 -166 -30q-106 0 -157.5 33t-51.5 124h132q2 -27 30 -36q17 -7 70 -7q93 0 118 43z" />
    <glyph glyph-name="Gdotaccent" unicode="&#x120;" horiz-adv-x="1038" 
d="M627 245l34 162h401l-84 -407h-121l-19 65q-65 -49 -144.5 -69.5t-201.5 -20.5q-36 0 -68 2t-68.5 8t-67.5 15t-61.5 24.5t-54 35.5t-42 49t-28 64t-9.5 81t11 100q18 90 61 159.5t96.5 111.5t122.5 68.5t132.5 36t133.5 9.5q235 0 338 -65.5t91 -204.5h-318q0 51 -40 73
q-31 17 -92 17q-188 0 -230 -202q-43 -202 168 -202q125 0 176 90h-116zM544 784l27 132h242l-27 -132h-242z" />
    <glyph glyph-name="gdotaccent" unicode="&#x121;" horiz-adv-x="888" 
d="M587 46l10 47q-80 -59 -229 -59q-162 0 -233 67t-44 197q28 125 134 194.5t252 69.5t209 -77l13 62h242l-105 -508q-27 -128 -133 -185.5t-299 -57.5q-202 0 -281 44t-75 148h276q0 -28 23 -40q26 -14 80 -14q75 0 111.5 26.5t48.5 85.5zM638 293q11 47 -17.5 77
t-103.5 30q-139 0 -165 -107q-9 -49 18.5 -79t101.5 -30q75 0 116 30t50 79zM425 614l27 132h242l-27 -132h-242z" />
    <glyph glyph-name="Gcommaaccent" unicode="&#x122;" horiz-adv-x="1038" 
d="M627 245l34 162h401l-84 -407h-121l-19 65q-65 -49 -144.5 -69.5t-201.5 -20.5q-36 0 -68 2t-68.5 8t-67.5 15t-61.5 24.5t-54 35.5t-42 49t-28 64t-9.5 81t11 100q18 90 61 159.5t96.5 111.5t122.5 68.5t132.5 36t133.5 9.5q235 0 338 -65.5t91 -204.5h-318q0 51 -40 73
q-31 17 -92 17q-188 0 -230 -202q-43 -202 168 -202q125 0 176 90h-116zM365 -158l22 108h222l-16 -76q-17 -65 -57.5 -86.5t-145.5 -22.5l10 48q30 2 46 8t25 21h-106z" />
    <glyph glyph-name="gcommaaccent" unicode="&#x123;" horiz-adv-x="888" 
d="M587 46l10 47q-80 -59 -229 -59q-162 0 -233 67t-44 197q28 125 134 194.5t252 69.5t209 -77l13 62h242l-105 -508q-27 -128 -133 -185.5t-299 -57.5q-202 0 -281 44t-75 148h276q0 -28 23 -40q26 -14 80 -14q75 0 111.5 26.5t48.5 85.5zM638 293q11 47 -17.5 77
t-103.5 30q-139 0 -165 -107q-9 -49 18.5 -79t101.5 -30q75 0 116 30t50 79zM704 739l-22 -108h-222l16 76q17 65 57.5 86.5t145.5 22.5l-10 -48q-55 -5 -70 -29h105z" />
    <glyph glyph-name="Hcircumflex" unicode="&#x124;" horiz-adv-x="1019" 
d="M668 0l59 285h-317l-59 -285h-282l148 714h282l-52 -249h317l52 249h282l-148 -714h-282zM343 778l184 144h358l125 -144h-279l-52 76l-84 -76h-252z" />
    <glyph glyph-name="hcircumflex" unicode="&#x125;" horiz-adv-x="832" 
d="M60 0l153 739h250l-54 -260h2q29 32 91 57.5t144 25.5q110 0 165.5 -52.5t32.5 -161.5l-72 -348h-250l58 283q22 99 -75 99q-53 0 -91 -32.5t-52 -97.5l-52 -252h-250zM224 778l184 144h358l125 -144h-279l-52 76l-84 -76h-252z" />
    <glyph glyph-name="Hbar" unicode="&#x126;" horiz-adv-x="1019" 
d="M668 0l56 270h-317l-56 -270h-282l148 714h282l-23 -114h317l23 114h282l-148 -714h-282zM441 430h317l14 68h-317z" />
    <glyph glyph-name="hbar" unicode="&#x127;" horiz-adv-x="900" 
d="M125 574l26 102h117l13 63h250l-13 -63h138l-22 -102h-138l-19 -95h2q29 32 91 57.5t144 25.5q110 0 165.5 -52.5t32.5 -161.5l-72 -348h-250l58 283q22 99 -75 99q-53 0 -91 -32.5t-52 -97.5l-52 -252h-250l119 574h-122z" />
    <glyph glyph-name="Itilde" unicode="&#x128;" horiz-adv-x="426" 
d="M72 0l148 714h282l-148 -714h-282zM586 919h106q-66 -156 -183 -156q-28 0 -142 24t-134 24q-26 0 -46 -29h-106q74 155 194 155q23 0 137 -24q103 -24 125 -24q32 0 49 30z" />
    <glyph glyph-name="itilde" unicode="&#x129;" horiz-adv-x="370" 
d="M60 0l113 547h250l-113 -547h-250zM514 749h106q-66 -156 -183 -156q-28 0 -142 24t-134 24q-26 0 -46 -29h-106q74 155 194 155q23 0 137 -24q103 -24 125 -24q32 0 49 30z" />
    <glyph glyph-name="Imacron" unicode="&#x12a;" horiz-adv-x="426" 
d="M72 0l148 714h282l-148 -714h-282zM72 784l32 132h570l-33 -132h-569z" />
    <glyph glyph-name="imacron" unicode="&#x12b;" horiz-adv-x="370" 
d="M60 0l113 547h250l-113 -547h-250zM6 614l32 132h570l-33 -132h-569z" />
    <glyph glyph-name="Iogonek" unicode="&#x12e;" horiz-adv-x="426" 
d="M354 0h-32q-41 -30 -59 -44t-34.5 -32t-19.5 -35q-3 -18 6.5 -28t27.5 -10q33 0 75 12l-6 -60q-78 -23 -158 -23q-63 0 -91 24.5t-19 64.5q14 68 166 131h-138l148 714h282z" />
    <glyph glyph-name="iogonek" unicode="&#x12f;" horiz-adv-x="370" 
d="M310 0h-29q-41 -30 -57.5 -43.5t-32.5 -32t-19 -35.5q-6 -38 33 -38q31 0 72 12l-5 -60q-75 -23 -154 -23q-61 0 -88 24.5t-18 64.5q11 68 161 131h-113l113 547h250zM184 601l29 138h250l-29 -138h-250z" />
    <glyph glyph-name="Idotaccent" unicode="&#x130;" horiz-adv-x="426" 
d="M72 0l148 714h282l-148 -714h-282zM248 784l27 132h242l-27 -132h-242z" />
    <glyph glyph-name="dotlessi" unicode="&#x131;" horiz-adv-x="370" 
d="M60 0l113 547h250l-113 -547h-250z" />
    <glyph glyph-name="Jcircumflex" unicode="&#x134;" horiz-adv-x="796" 
d="M513 260l94 454h282l-90 -433q-12 -59 -28.5 -102t-47 -83.5t-74 -65.5t-110.5 -40t-155 -15q-71 0 -122.5 6t-93 21t-66 39t-37.5 60t-12 84.5t15 113.5h282q-19 -86 -11 -113q10 -37 64 -37q45 0 71 26t39 85zM432 778l184 144h358l125 -144h-279l-52 76l-84 -76h-252z
" />
    <glyph glyph-name="jcircumflex" unicode="&#x135;" horiz-adv-x="389" 
d="M-64 -190l36 174h45q36 0 49.5 10t20.5 49l105 504h250l-113 -543q-14 -66 -36 -106.5t-57.5 -60.5t-72.5 -26.5t-96 -6.5q-87 0 -131 6zM0 608l184 144h358l125 -144h-279l-52 76l-84 -76h-252z" />
    <glyph glyph-name="Kcommaaccent" unicode="&#x136;" horiz-adv-x="981" 
d="M639 0l-139 274l-110 -82l-39 -192h-282l148 714h282l-52 -252l314 252h374l-376 -276l255 -438h-375zM358 -158l22 108h222l-16 -76q-17 -65 -57.5 -86.5t-145.5 -22.5l10 48q30 2 46 8t25 21h-106z" />
    <glyph glyph-name="kcommaaccent" unicode="&#x137;" horiz-adv-x="832" 
d="M60 0l153 739h250l-77 -369l226 177h332l-291 -204l203 -343h-338l-92 184l-92 -64l-24 -120h-250zM284 -158l22 108h222l-16 -76q-17 -65 -57.5 -86.5t-145.5 -22.5l10 48q30 2 46 8t25 21h-106z" />
    <glyph glyph-name="Lacute" unicode="&#x139;" horiz-adv-x="796" 
d="M69 0l148 714h282l-109 -522h437l-39 -192h-719zM244 778l121 144h303l-183 -144h-241z" />
    <glyph glyph-name="lacute" unicode="&#x13a;" horiz-adv-x="370" 
d="M60 0l153 739h250l-153 -739h-250zM218 778l121 144h303l-183 -144h-241z" />
    <glyph glyph-name="Lcommaaccent" unicode="&#x13b;" horiz-adv-x="796" 
d="M69 0l148 714h282l-109 -522h437l-39 -192h-719zM300 -158l22 108h222l-16 -76q-17 -65 -57.5 -86.5t-145.5 -22.5l10 48q30 2 46 8t25 21h-106z" />
    <glyph glyph-name="lcommaaccent" unicode="&#x13c;" horiz-adv-x="370" 
d="M60 0l153 739h250l-153 -739h-250zM46 -158l22 108h222l-16 -76q-17 -65 -57.5 -86.5t-145.5 -22.5l10 48q30 2 46 8t25 21h-106z" />
    <glyph glyph-name="Lcaron" unicode="&#x13d;" horiz-adv-x="796" 
d="M69 0l148 714h282l-109 -522h437l-39 -192h-719zM564 577l63 162h237l-118 -162h-182z" />
    <glyph glyph-name="lcaron" unicode="&#x13e;" horiz-adv-x="586" 
d="M60 0l153 739h250l-153 -739h-250zM478 577l63 162h237l-118 -162h-182z" />
    <glyph glyph-name="Ldot" unicode="&#x13f;" horiz-adv-x="796" 
d="M69 0l148 714h282l-109 -522h437l-39 -192h-719zM536 363l19 187h165l-18 -187h-166z" />
    <glyph glyph-name="ldot" unicode="&#x140;" horiz-adv-x="581" 
d="M60 0l153 739h250l-153 -739h-250zM474 363l17 187h150l-16 -187h-151z" />
    <glyph glyph-name="Lslash" unicode="&#x141;" horiz-adv-x="796" 
d="M69 0l39 191l-76 -41l33 162l77 41l75 361h282l-43 -205l188 99l-34 -162l-187 -99l-33 -155h437l-39 -192h-719z" />
    <glyph glyph-name="lslash" unicode="&#x142;" horiz-adv-x="370" 
d="M60 0l47 229l-68 -37l32 150l67 37l75 360h250l-44 -213l68 37l-32 -150l-67 -37l-78 -376h-250z" />
    <glyph glyph-name="Nacute" unicode="&#x143;" horiz-adv-x="1019" 
d="M69 0l148 714h322l204 -396h3l82 396h270l-148 -714h-309l-217 400h-2l-83 -400h-270zM542 777l121 144h303l-183 -144h-241z" />
    <glyph glyph-name="nacute" unicode="&#x144;" horiz-adv-x="832" 
d="M60 0l113 547h242l-14 -68h2q31 31 96 57t147 26q110 0 165.5 -52.5t32.5 -161.5l-72 -348h-250l58 283q22 99 -75 99q-53 0 -91 -32.5t-52 -97.5l-52 -252h-250zM404 608l121 144h303l-183 -144h-241z" />
    <glyph glyph-name="Ncommaaccent" unicode="&#x145;" horiz-adv-x="1019" 
d="M69 0l148 714h322l204 -396h3l82 396h270l-148 -714h-309l-217 400h-2l-83 -400h-270zM376 -158l22 108h222l-16 -76q-17 -65 -57.5 -86.5t-145.5 -22.5l10 48q30 2 46 8t25 21h-106z" />
    <glyph glyph-name="ncommaaccent" unicode="&#x146;" horiz-adv-x="832" 
d="M60 0l113 547h242l-14 -68h2q31 31 96 57t147 26q110 0 165.5 -52.5t32.5 -161.5l-72 -348h-250l58 283q22 99 -75 99q-53 0 -91 -32.5t-52 -97.5l-52 -252h-250zM277 -158l22 108h222l-16 -76q-17 -65 -57.5 -86.5t-145.5 -22.5l10 48q30 2 46 8t25 21h-106z" />
    <glyph glyph-name="Ncaron" unicode="&#x147;" horiz-adv-x="1019" 
d="M69 0l148 714h322l204 -396h3l82 396h270l-148 -714h-309l-217 400h-2l-83 -400h-270zM477 778l-124 144h278l53 -76l83 76h253l-185 -144h-358z" />
    <glyph glyph-name="ncaron" unicode="&#x148;" horiz-adv-x="832" 
d="M60 0l113 547h242l-14 -68h2q31 31 96 57t147 26q110 0 165.5 -52.5t32.5 -161.5l-72 -348h-250l58 283q22 99 -75 99q-53 0 -91 -32.5t-52 -97.5l-52 -252h-250zM346 608l-124 144h278l53 -76l83 76h253l-185 -144h-358z" />
    <glyph glyph-name="Omacron" unicode="&#x14c;" horiz-adv-x="1038" 
d="M105 357q12 60 34 110.5t48 87t61 66t68 48.5t75 32.5t74.5 20.5t75 11t69 5t62.5 1q32 0 55.5 -1t59.5 -3.5t63.5 -8.5t61 -15t58 -24.5t49.5 -35.5t40 -48.5t25 -63.5t9 -81.5t-12 -100.5q-12 -60 -34 -110.5t-48 -87t-61.5 -66t-68 -48.5t-74.5 -32.5t-75 -20.5
t-75.5 -11t-69 -5t-62.5 -1q-32 0 -55.5 1t-59.5 3.5t-63.5 8.5t-61 15t-58 24.5t-49.5 35.5t-39.5 48.5t-24.5 63.5t-9 81.5t12 100.5zM405 357q-45 -202 146 -202q185 0 230 202q42 202 -146 202t-230 -202zM392 784l32 132h570l-33 -132h-569z" />
    <glyph glyph-name="omacron" unicode="&#x14d;" 
d="M348 274q-13 -67 14.5 -100.5t101.5 -33.5q144 0 170 134q29 133 -115 133q-142 0 -171 -133zM86 274q33 151 144.5 223t322.5 72q210 0 292.5 -72t50.5 -223q-30 -152 -143 -224t-323 -72q-211 0 -292.5 71.5t-51.5 224.5zM274 614l32 132h570l-33 -132h-569z" />
    <glyph glyph-name="Obreve" unicode="&#x14e;" horiz-adv-x="1038" 
d="M105 357q12 60 34 110.5t48 87t61 66t68 48.5t75 32.5t74.5 20.5t75 11t69 5t62.5 1q32 0 55.5 -1t59.5 -3.5t63.5 -8.5t61 -15t58 -24.5t49.5 -35.5t40 -48.5t25 -63.5t9 -81.5t-12 -100.5q-12 -60 -34 -110.5t-48 -87t-61.5 -66t-68 -48.5t-74.5 -32.5t-75 -20.5
t-75.5 -11t-69 -5t-62.5 -1q-32 0 -55.5 1t-59.5 3.5t-63.5 8.5t-61 15t-58 24.5t-49.5 35.5t-39.5 48.5t-24.5 63.5t-9 81.5t12 100.5zM405 357q-45 -202 146 -202q185 0 230 202q42 202 -146 202t-230 -202zM801 929h132q-36 -92 -107 -127q-61 -30 -166 -30
q-106 0 -157.5 33t-51.5 124h132q1 -27 30 -36q17 -7 70 -7q93 0 118 43z" />
    <glyph glyph-name="obreve" unicode="&#x14f;" 
d="M348 274q-13 -67 14.5 -100.5t101.5 -33.5q144 0 170 134q29 133 -115 133q-142 0 -171 -133zM86 274q33 151 144.5 223t322.5 72q210 0 292.5 -72t50.5 -223q-30 -152 -143 -224t-323 -72q-211 0 -292.5 71.5t-51.5 224.5zM681 759h132q-36 -92 -107 -127
q-61 -30 -166 -30q-106 0 -157.5 33t-51.5 124h132q1 -27 30 -36q17 -7 70 -7q93 0 118 43z" />
    <glyph glyph-name="Ohungarumlaut" unicode="&#x150;" horiz-adv-x="1038" 
d="M105 357q12 60 34 110.5t48 87t61 66t68 48.5t75 32.5t74.5 20.5t75 11t69 5t62.5 1q32 0 55.5 -1t59.5 -3.5t63.5 -8.5t61 -15t58 -24.5t49.5 -35.5t40 -48.5t25 -63.5t9 -81.5t-12 -100.5q-12 -60 -34 -110.5t-48 -87t-61.5 -66t-68 -48.5t-74.5 -32.5t-75 -20.5
t-75.5 -11t-69 -5t-62.5 -1q-32 0 -55.5 1t-59.5 3.5t-63.5 8.5t-61 15t-58 24.5t-49.5 35.5t-39.5 48.5t-24.5 63.5t-9 81.5t12 100.5zM405 357q-45 -202 146 -202q185 0 230 202q42 202 -146 202t-230 -202zM378 778l120 144h303l-183 -144h-240zM737 778l121 144h303
l-183 -144h-241z" />
    <glyph glyph-name="ohungarumlaut" unicode="&#x151;" 
d="M348 274q-13 -67 14.5 -100.5t101.5 -33.5q144 0 170 134q29 133 -115 133q-142 0 -171 -133zM86 274q33 151 144.5 223t322.5 72q210 0 292.5 -72t50.5 -223q-30 -152 -143 -224t-323 -72q-211 0 -292.5 71.5t-51.5 224.5zM259 608l120 144h303l-183 -144h-240zM618 608
l121 144h303l-183 -144h-241z" />
    <glyph glyph-name="OE" unicode="&#x152;" horiz-adv-x="1166" 
d="M623 279l33 159q11 58 -17 89.5t-74 31.5q-76 0 -117.5 -53.5t-61.5 -151.5q-11 -58 -10 -102t27 -70.5t78 -26.5q46 0 87.5 32t54.5 92zM566 0l8 41q-85 -66 -209 -66q-71 0 -125.5 20.5t-94.5 66t-49.5 118t9.5 177.5q21 101 63.5 176.5t99.5 119.5t121 65t135 21
q128 0 180 -68l9 43h572l-36 -174h-330l-20 -96h317l-36 -174h-317l-20 -96h335l-36 -174h-576z" />
    <glyph glyph-name="oe" unicode="&#x153;" horiz-adv-x="1166" 
d="M752 331h227q5 44 -21 72t-71 28t-82.5 -27.5t-52.5 -72.5zM1181 217h-452q-12 -101 96 -101q42 0 62 10t44 38h237q-104 -186 -360 -186q-151 0 -208 74q-93 -74 -239 -74q-155 0 -230 73.5t-45 221.5q18 85 59.5 145.5t98 92t115 45t125.5 13.5q137 0 211 -63
q87 63 222 63q157 0 230.5 -79t40.5 -238zM327 266q-16 -72 10.5 -102t75.5 -30q111 0 143 146q13 64 -10 98.5t-75 34.5q-114 0 -144 -147z" />
    <glyph glyph-name="Racute" unicode="&#x154;" horiz-adv-x="962" 
d="M69 0l148 714h594q115 0 164 -26q37 -21 55 -68.5t6 -104.5q-31 -133 -144 -163l-1 -2q69 -21 58 -110l-20 -156q-6 -47 18 -84h-308q-1 3 -2 7t-1 9v9.5t1 12.5t2 13.5t2.5 17t2.5 19t3.5 22.5t4.5 25q13 85 -56 85h-200l-45 -220h-282zM462 534l-28 -134h200
q79 0 92 67q8 38 -10.5 52.5t-57.5 14.5h-196zM483 778l121 144h303l-183 -144h-241z" />
    <glyph glyph-name="racute" unicode="&#x155;" horiz-adv-x="630" 
d="M60 0l113 547h242l-22 -105h2q119 120 258 120q41 0 81 -6l-46 -224q-78 20 -121 20q-50 0 -91 -11.5t-77 -46t-47 -89.5l-42 -205h-250zM182 608l121 144h303l-183 -144h-241z" />
    <glyph glyph-name="Rcommaaccent" unicode="&#x156;" horiz-adv-x="962" 
d="M69 0l148 714h594q115 0 164 -26q37 -21 55 -68.5t6 -104.5q-31 -133 -144 -163l-1 -2q69 -21 58 -110l-20 -156q-6 -47 18 -84h-308q-1 3 -2 7t-1 9v9.5t1 12.5t2 13.5t2.5 17t2.5 19t3.5 22.5t4.5 25q13 85 -56 85h-200l-45 -220h-282zM462 534l-28 -134h200
q79 0 92 67q8 38 -10.5 52.5t-57.5 14.5h-196zM363 -158l22 108h222l-16 -76q-17 -65 -57.5 -86.5t-145.5 -22.5l10 48q30 2 46 8t25 21h-106z" />
    <glyph glyph-name="rcommaaccent" unicode="&#x157;" horiz-adv-x="630" 
d="M60 0l113 547h242l-22 -105h2q119 120 258 120q41 0 81 -6l-46 -224q-78 20 -121 20q-50 0 -91 -11.5t-77 -46t-47 -89.5l-42 -205h-250zM46 -158l22 108h222l-16 -76q-17 -65 -57.5 -86.5t-145.5 -22.5l10 48q30 2 46 8t25 21h-106z" />
    <glyph glyph-name="Rcaron" unicode="&#x158;" horiz-adv-x="962" 
d="M69 0l148 714h594q115 0 164 -26q37 -21 55 -68.5t6 -104.5q-31 -133 -144 -163l-1 -2q69 -21 58 -110l-20 -156q-6 -47 18 -84h-308q-1 3 -2 7t-1 9v9.5t1 12.5t2 13.5t2.5 17t2.5 19t3.5 22.5t4.5 25q13 85 -56 85h-200l-45 -220h-282zM462 534l-28 -134h200
q79 0 92 67q8 38 -10.5 52.5t-57.5 14.5h-196zM422 778l-124 144h278l53 -76l83 76h253l-185 -144h-358z" />
    <glyph glyph-name="rcaron" unicode="&#x159;" horiz-adv-x="630" 
d="M60 0l113 547h242l-22 -105h2q119 120 258 120q41 0 81 -6l-46 -224q-78 20 -121 20q-50 0 -91 -11.5t-77 -46t-47 -89.5l-42 -205h-250zM256 608l-124 144h278l53 -76l83 76h253l-185 -144h-358z" />
    <glyph glyph-name="Sacute" unicode="&#x15a;" horiz-adv-x="962" 
d="M604 255l-313 48q-96 15 -133 68.5t-20 132.5q15 67 55.5 114.5t104.5 73t137 36.5t165 11q233 0 329.5 -58.5t80.5 -175.5h-328q9 39 -31 57q-31 15 -85 15q-111 0 -123 -51q-6 -32 29 -37l327 -50q106 -16 155.5 -68t31.5 -140q-28 -132 -152 -194t-361 -62
q-73 0 -130 4.5t-117 19.5t-97 40.5t-55.5 70t-5.5 105.5h340q-6 -34 20 -51q27 -15 92 -15q112 0 125 58q7 39 -41 48zM483 778l121 144h303l-183 -144h-241z" />
    <glyph glyph-name="sacute" unicode="&#x15b;" horiz-adv-x="815" 
d="M508 192l-238 25q-102 12 -135 52.5t-17 115.5q20 96 118 140t284 44q56 0 102 -4.5t92.5 -16.5t76 -32t45 -54t7.5 -79h-282q5 23 -12 34q-23 14 -71 14q-88 0 -97 -38q-6 -28 60 -34l234 -21q183 -17 151 -165q-21 -104 -123 -149.5t-303 -45.5q-197 0 -277 44t-64 148
h294q-3 -31 22 -44q20 -10 69 -10q83 0 91 42q8 30 -27 34zM385 608l121 144h303l-183 -144h-241z" />
    <glyph glyph-name="Scircumflex" unicode="&#x15c;" horiz-adv-x="962" 
d="M604 255l-313 48q-96 15 -133 68.5t-20 132.5q15 67 55.5 114.5t104.5 73t137 36.5t165 11q233 0 329.5 -58.5t80.5 -175.5h-328q9 39 -31 57q-31 15 -85 15q-111 0 -123 -51q-6 -32 29 -37l327 -50q106 -16 155.5 -68t31.5 -140q-28 -132 -152 -194t-361 -62
q-73 0 -130 4.5t-117 19.5t-97 40.5t-55.5 70t-5.5 105.5h340q-6 -34 20 -51q27 -15 92 -15q112 0 125 58q7 39 -41 48zM285 778l184 144h358l125 -144h-279l-52 76l-84 -76h-252z" />
    <glyph glyph-name="scircumflex" unicode="&#x15d;" horiz-adv-x="815" 
d="M508 192l-238 25q-102 12 -135 52.5t-17 115.5q20 96 118 140t284 44q56 0 102 -4.5t92.5 -16.5t76 -32t45 -54t7.5 -79h-282q5 23 -12 34q-23 14 -71 14q-88 0 -97 -38q-6 -28 60 -34l234 -21q183 -17 151 -165q-21 -104 -123 -149.5t-303 -45.5q-197 0 -277 44t-64 148
h294q-3 -31 22 -44q20 -10 69 -10q83 0 91 42q8 30 -27 34zM200 608l184 144h358l125 -144h-279l-52 76l-84 -76h-252z" />
    <glyph glyph-name="Scedilla" unicode="&#x15e;" horiz-adv-x="962" 
d="M318 -200l26 54q38 -11 75 -11q48 0 55 29q3 11 -6.5 17t-23.5 6q-13 0 -37 -8l-22 21l57 67q-52 2 -77 3q-71 4 -126.5 17.5t-101 39.5t-64 72t-5.5 108h340q-6 -34 20 -51q27 -15 92 -15q112 0 125 58q7 39 -41 48l-313 48q-96 15 -133 68.5t-20 132.5
q15 67 55.5 114.5t104.5 73t137 36.5t165 11q233 0 329.5 -58.5t80.5 -175.5h-328q9 39 -31 57q-31 15 -85 15q-111 0 -123 -51q-6 -32 29 -37l327 -50q106 -16 155.5 -68t31.5 -140q-29 -132 -152 -194q-110 -55 -314 -61l-18 -23q20 4 50 4q43 0 67.5 -22.5t17.5 -58.5
q-11 -54 -56 -75t-118 -21q-86 0 -145 20z" />
    <glyph glyph-name="Scedilla" unicode="&#xf6c1;" horiz-adv-x="962" 
d="M318 -200l26 54q38 -11 75 -11q48 0 55 29q3 11 -6.5 17t-23.5 6q-13 0 -37 -8l-22 21l57 67q-52 2 -77 3q-71 4 -126.5 17.5t-101 39.5t-64 72t-5.5 108h340q-6 -34 20 -51q27 -15 92 -15q112 0 125 58q7 39 -41 48l-313 48q-96 15 -133 68.5t-20 132.5
q15 67 55.5 114.5t104.5 73t137 36.5t165 11q233 0 329.5 -58.5t80.5 -175.5h-328q9 39 -31 57q-31 15 -85 15q-111 0 -123 -51q-6 -32 29 -37l327 -50q106 -16 155.5 -68t31.5 -140q-29 -132 -152 -194q-110 -55 -314 -61l-18 -23q20 4 50 4q43 0 67.5 -22.5t17.5 -58.5
q-11 -54 -56 -75t-118 -21q-86 0 -145 20z" />
    <glyph glyph-name="scedilla" unicode="&#x15f;" horiz-adv-x="815" 
d="M236 -200l26 54q38 -11 75 -11q48 0 55 29q3 11 -6.5 17t-23.5 6q-13 0 -37 -8l-22 21l60 70q-71 1 -130 11q-102 15 -144 59t-30 122h294q-3 -31 22 -44q20 -10 69 -10q83 0 91 42q8 30 -27 34l-238 25q-102 12 -135 52.5t-17 115.5q20 96 118 140t284 44q56 0 102 -4.5
t92.5 -16.5t76 -32t45 -54t7.5 -79h-282q5 23 -12 34q-23 14 -71 14q-88 0 -97 -38q-6 -28 60 -34l234 -21q183 -17 151 -165q-22 -106 -125 -151q-90 -38 -261 -43l-20 -26q20 4 50 4q43 0 67.5 -22.5t17.5 -58.5q-11 -54 -56 -75t-118 -21q-86 0 -145 20z" />
    <glyph glyph-name="scedilla" unicode="&#xf6c2;" horiz-adv-x="815" 
d="M236 -200l26 54q38 -11 75 -11q48 0 55 29q3 11 -6.5 17t-23.5 6q-13 0 -37 -8l-22 21l60 70q-71 1 -130 11q-102 15 -144 59t-30 122h294q-3 -31 22 -44q20 -10 69 -10q83 0 91 42q8 30 -27 34l-238 25q-102 12 -135 52.5t-17 115.5q20 96 118 140t284 44q56 0 102 -4.5
t92.5 -16.5t76 -32t45 -54t7.5 -79h-282q5 23 -12 34q-23 14 -71 14q-88 0 -97 -38q-6 -28 60 -34l234 -21q183 -17 151 -165q-22 -106 -125 -151q-90 -38 -261 -43l-20 -26q20 4 50 4q43 0 67.5 -22.5t17.5 -58.5q-11 -54 -56 -75t-118 -21q-86 0 -145 20z" />
    <glyph glyph-name="Scaron" unicode="&#x160;" horiz-adv-x="962" 
d="M604 255l-313 48q-96 15 -133 68.5t-20 132.5q15 67 55.5 114.5t104.5 73t137 36.5t165 11q233 0 329.5 -58.5t80.5 -175.5h-328q9 39 -31 57q-31 15 -85 15q-111 0 -123 -51q-6 -32 29 -37l327 -50q106 -16 155.5 -68t31.5 -140q-28 -132 -152 -194t-361 -62
q-73 0 -130 4.5t-117 19.5t-97 40.5t-55.5 70t-5.5 105.5h340q-6 -34 20 -51q27 -15 92 -15q112 0 125 58q7 39 -41 48zM413 778l-124 144h278l53 -76l83 76h253l-185 -144h-358z" />
    <glyph glyph-name="scaron" unicode="&#x161;" horiz-adv-x="815" 
d="M508 192l-238 25q-102 12 -135 52.5t-17 115.5q20 96 118 140t284 44q56 0 102 -4.5t92.5 -16.5t76 -32t45 -54t7.5 -79h-282q5 23 -12 34q-23 14 -71 14q-88 0 -97 -38q-6 -28 60 -34l234 -21q183 -17 151 -165q-21 -104 -123 -149.5t-303 -45.5q-197 0 -277 44t-64 148
h294q-3 -31 22 -44q20 -10 69 -10q83 0 91 42q8 30 -27 34zM327 608l-124 144h278l53 -76l83 76h253l-185 -144h-358z" />
    <glyph glyph-name="Tcommaaccent" unicode="&#x162;" horiz-adv-x="796" 
d="M257 0l111 534h-261l37 180h804l-37 -180h-261l-111 -534h-282zM261 -158l22 108h222l-16 -76q-17 -65 -57.5 -86.5t-145.5 -22.5l10 48q30 2 46 8t25 21h-106z" />
    <glyph glyph-name="tcommaaccent" unicode="&#x163;" horiz-adv-x="537" 
d="M90 391l32 156h116l37 176h250l-37 -176h135l-32 -156h-135l-40 -193q-8 -36 5.5 -45t57.5 -9q20 0 68 2l-30 -146q-81 -12 -185 -12q-119 0 -157.5 35.5t-15.5 142.5l47 225h-116zM202 -158l22 108h222l-16 -76q-17 -65 -57.5 -86.5t-145.5 -22.5l10 48q30 2 46 8t25 21
h-106z" />
    <glyph glyph-name="Tcaron" unicode="&#x164;" horiz-adv-x="796" 
d="M257 0l111 534h-261l37 180h804l-37 -180h-261l-111 -534h-282zM354 746l-124 144h278l53 -76l83 76h253l-185 -144h-358z" />
    <glyph glyph-name="tcaron" unicode="&#x165;" horiz-adv-x="723" 
d="M617 577l63 162h237l-118 -162h-182zM90 391l32 156h116l37 176h250l-37 -176h135l-32 -156h-135l-40 -193q-8 -36 5.5 -45t57.5 -9q20 0 68 2l-30 -146q-81 -12 -185 -12q-119 0 -157.5 35.5t-15.5 142.5l47 225h-116z" />
    <glyph glyph-name="Tbar" unicode="&#x166;" horiz-adv-x="796" 
d="M179 324l22 102h144l23 108h-261l37 180h804l-37 -180h-261l-23 -108h144l-23 -102h-142l-67 -324h-282l67 324h-145z" />
    <glyph glyph-name="tbar" unicode="&#x167;" horiz-adv-x="537" 
d="M45 232l22 102h127l14 67h-116l30 146h116l37 176h250l-37 -176h135l-30 -146h-135l-14 -67h146l-23 -102h-144l-7 -34q-8 -36 5.5 -45t57.5 -9q20 0 68 2l-30 -146q-81 -12 -185 -12q-119 0 -157.5 35.5t-15.5 142.5l14 66h-128z" />
    <glyph glyph-name="Utilde" unicode="&#x168;" horiz-adv-x="962" 
d="M110 271l92 443h282l-90 -432q-14 -66 16.5 -93.5t103.5 -27.5t114.5 27.5t55.5 93.5l90 432h282l-92 -443q-35 -165 -149.5 -230.5t-339.5 -65.5t-312.5 65.5t-52.5 230.5zM858 919h106q-66 -156 -183 -156q-28 0 -142 24t-134 24q-26 0 -46 -29h-106q74 155 194 155
q23 0 137 -24q103 -24 125 -24q32 0 49 30z" />
    <glyph glyph-name="utilde" unicode="&#x169;" horiz-adv-x="832" 
d="M885 547l-113 -547h-242l12 61h-2q-31 -31 -96 -57t-147 -26q-110 0 -164.5 52.5t-33.5 161.5l74 355h250l-60 -290q-22 -99 75 -99q117 0 144 131l53 258h250zM756 749h106q-66 -156 -183 -156q-28 0 -142 24t-134 24q-26 0 -46 -29h-106q74 155 194 155q23 0 137 -24
q103 -24 125 -24q32 0 49 30z" />
    <glyph glyph-name="Umacron" unicode="&#x16a;" horiz-adv-x="962" 
d="M110 271l92 443h282l-90 -432q-14 -66 16.5 -93.5t103.5 -27.5t114.5 27.5t55.5 93.5l90 432h282l-92 -443q-35 -165 -149.5 -230.5t-339.5 -65.5t-312.5 65.5t-52.5 230.5zM352 784l32 132h570l-33 -132h-569z" />
    <glyph glyph-name="umacron" unicode="&#x16b;" horiz-adv-x="832" 
d="M885 547l-113 -547h-242l12 61h-2q-31 -31 -96 -57t-147 -26q-110 0 -164.5 52.5t-33.5 161.5l74 355h250l-60 -290q-22 -99 75 -99q117 0 144 131l53 258h250zM254 614l32 132h570l-33 -132h-569z" />
    <glyph glyph-name="Ubreve" unicode="&#x16c;" horiz-adv-x="962" 
d="M110 271l92 443h282l-90 -432q-14 -66 16.5 -93.5t103.5 -27.5t114.5 27.5t55.5 93.5l90 432h282l-92 -443q-35 -165 -149.5 -230.5t-339.5 -65.5t-312.5 65.5t-52.5 230.5zM768 929h132q-36 -92 -107 -127q-61 -30 -166 -30q-106 0 -157.5 33t-51.5 124h132
q2 -27 30 -36q17 -7 70 -7q93 0 118 43z" />
    <glyph glyph-name="ubreve" unicode="&#x16d;" horiz-adv-x="832" 
d="M885 547l-113 -547h-242l12 61h-2q-31 -31 -96 -57t-147 -26q-110 0 -164.5 52.5t-33.5 161.5l74 355h250l-60 -290q-22 -99 75 -99q117 0 144 131l53 258h250zM665 759h132q-36 -92 -107 -127q-61 -30 -166 -30q-106 0 -157.5 33t-51.5 124h132q1 -27 30 -36
q17 -7 70 -7q93 0 118 43z" />
    <glyph glyph-name="Uring" unicode="&#x16e;" horiz-adv-x="962" 
d="M110 271l92 443h282l-90 -432q-14 -66 16.5 -93.5t103.5 -27.5t114.5 27.5t55.5 93.5l90 432h282l-92 -443q-35 -165 -149.5 -230.5t-339.5 -65.5t-312.5 65.5t-52.5 230.5zM510 875q10 58 59.5 94.5t108.5 36.5q57 0 87.5 -36.5t20.5 -94.5q-13 -59 -62 -97t-106 -34
q-57 0 -89 37.5t-19 93.5zM588 875q-6 -25 8 -42.5t39 -17.5t46 17.5t27 42.5q5 25 -9 42.5t-39 17.5t-46 -17.5t-26 -42.5z" />
    <glyph glyph-name="uring" unicode="&#x16f;" horiz-adv-x="832" 
d="M885 547l-113 -547h-242l12 61h-2q-31 -31 -96 -57t-147 -26q-110 0 -164.5 52.5t-33.5 161.5l74 355h250l-60 -290q-22 -99 75 -99q117 0 144 131l53 258h250zM416 710q10 58 59.5 94.5t108.5 36.5q57 0 87.5 -36.5t20.5 -94.5q-13 -59 -62 -97t-106 -34q-57 0 -89 37.5
t-19 93.5zM494 710q-6 -25 8 -42.5t39 -17.5t46 17.5t27 42.5q5 25 -9 42.5t-39 17.5t-46 -17.5t-26 -42.5z" />
    <glyph glyph-name="Uhungarumlaut" unicode="&#x170;" horiz-adv-x="962" 
d="M110 271l92 443h282l-90 -432q-14 -66 16.5 -93.5t103.5 -27.5t114.5 27.5t55.5 93.5l90 432h282l-92 -443q-35 -165 -149.5 -230.5t-339.5 -65.5t-312.5 65.5t-52.5 230.5zM332 778l120 144h303l-183 -144h-240zM691 778l121 144h303l-183 -144h-241z" />
    <glyph glyph-name="uhungarumlaut" unicode="&#x171;" horiz-adv-x="832" 
d="M885 547l-113 -547h-242l12 61h-2q-31 -31 -96 -57t-147 -26q-110 0 -164.5 52.5t-33.5 161.5l74 355h250l-60 -290q-22 -99 75 -99q117 0 144 131l53 258h250zM235 608l120 144h303l-183 -144h-240zM594 608l121 144h303l-183 -144h-241z" />
    <glyph glyph-name="Uogonek" unicode="&#x172;" horiz-adv-x="962" 
d="M110 271l92 443h282l-90 -432q-14 -66 16.5 -93.5t103.5 -27.5t114.5 27.5t55.5 93.5l90 432h282l-92 -443q-27 -125 -99 -192.5t-198 -88.5q-43 -8 -96 -12q-46 -36 -48 -38q-30 -27 -34 -51q-3 -18 6.5 -28t27.5 -10q33 0 75 12l-6 -60q-78 -23 -158 -23
q-63 0 -91 24.5t-19 64.5q8 41 55 73q26 18 56 34q-82 1 -146 14q-118 21 -162 88.5t-17 192.5z" />
    <glyph glyph-name="uogonek" unicode="&#x173;" horiz-adv-x="832" 
d="M885 547l-113 -547h-114q-49 -37 -71 -61t-27 -50q-3 -18 6.5 -28t27.5 -10q33 0 75 12l-6 -60q-78 -23 -158 -23q-63 0 -91 24.5t-19 64.5q13 65 135 131l12 61h-2q-31 -31 -96 -57t-147 -26q-110 0 -164.5 52.5t-33.5 161.5l74 355h250l-60 -290q-22 -99 75 -99
q117 0 144 131l53 258h250z" />
    <glyph glyph-name="Wcircumflex" unicode="&#x174;" horiz-adv-x="1166" 
d="M207 0l-60 714h273l1 -436h2l196 436h225l13 -436h2l183 436h273l-357 -714h-277l-15 396h-2l-180 -396h-277zM420 778l184 144h358l125 -144h-279l-52 76l-84 -76h-252z" />
    <glyph glyph-name="wcircumflex" unicode="&#x175;" horiz-adv-x="1166" 
d="M186 0l-73 547h267l22 -323h2l186 323h212l42 -323h2l166 323h267l-299 -547h-291l-47 286l-165 -286h-291zM385 608l184 144h358l125 -144h-279l-52 76l-84 -76h-252z" />
    <glyph glyph-name="Ycircumflex" unicode="&#x176;" horiz-adv-x="832" 
d="M275 0l41 201l-210 513h322l78 -280l194 280h322l-424 -513l-41 -201h-282zM255 778l184 144h358l125 -144h-279l-52 76l-84 -76h-252z" />
    <glyph glyph-name="ycircumflex" unicode="&#x177;" horiz-adv-x="722" 
d="M24 -187l33 162q20 -3 62 -3q43 0 62 7t39 35l21 30l-150 503h262l63 -281l179 281h262l-439 -636q-45 -63 -87.5 -85t-138.5 -22q-67 0 -168 9zM169 608l184 144h358l125 -144h-279l-52 76l-84 -76h-252z" />
    <glyph glyph-name="Ydieresis" unicode="&#x178;" horiz-adv-x="832" 
d="M275 0l41 201l-210 513h322l78 -280l194 280h322l-424 -513l-41 -201h-282zM288 784l26 132h242l-27 -132h-241zM607 784l27 132h242l-27 -132h-242z" />
    <glyph glyph-name="Zacute" unicode="&#x179;" horiz-adv-x="852" 
d="M22 0l31 151l508 383h-399l37 180h779l-32 -156l-497 -378h407l-37 -180h-797zM456 778l121 144h303l-183 -144h-241z" />
    <glyph glyph-name="zacute" unicode="&#x17a;" horiz-adv-x="704" 
d="M25 0l28 138l359 239v2h-291l35 168h627l-30 -144l-340 -227v-2h302l-36 -174h-654zM344 608l121 144h303l-183 -144h-241z" />
    <glyph glyph-name="Zdotaccent" unicode="&#x17b;" horiz-adv-x="852" 
d="M22 0l31 151l508 383h-399l37 180h779l-32 -156l-497 -378h407l-37 -180h-797zM468 784l27 132h242l-27 -132h-242z" />
    <glyph glyph-name="zdotaccent" unicode="&#x17c;" horiz-adv-x="704" 
d="M25 0l28 138l359 239v2h-291l35 168h627l-30 -144l-340 -227v-2h302l-36 -174h-654zM353 614l27 132h242l-27 -132h-242z" />
    <glyph glyph-name="Zcaron" unicode="&#x17d;" horiz-adv-x="852" 
d="M22 0l31 151l508 383h-399l37 180h779l-32 -156l-497 -378h407l-37 -180h-797zM398 778l-124 144h278l53 -76l83 76h253l-185 -144h-358z" />
    <glyph glyph-name="zcaron" unicode="&#x17e;" horiz-adv-x="704" 
d="M25 0l28 138l359 239v2h-291l35 168h627l-30 -144l-340 -227v-2h302l-36 -174h-654zM287 608l-124 144h278l53 -76l83 76h253l-185 -144h-358z" />
    <glyph glyph-name="florin" unicode="&#x192;" horiz-adv-x="600" 
d="M114 291l51 126h109l70 167q17 42 47 70t71.5 40t77 16t83.5 4q51 0 129 -9l-58 -144q-5 0 -14.5 1t-17.5 1.5t-15 0.5q-31 0 -48.5 -11.5t-32.5 -48.5l-36 -87h103l-52 -126h-103l-130 -313q-40 -99 -100.5 -136.5t-188.5 -37.5q-62 0 -144 6l61 147q9 -3 40 -3
q39 0 57.5 12.5t35.5 56.5l113 268h-108z" />
    <glyph glyph-name="Scommaaccent" unicode="&#x218;" horiz-adv-x="962" 
d="M604 255l-313 48q-96 15 -133 68.5t-20 132.5q15 67 55.5 114.5t104.5 73t137 36.5t165 11q233 0 329.5 -58.5t80.5 -175.5h-328q9 39 -31 57q-31 15 -85 15q-111 0 -123 -51q-6 -32 29 -37l327 -50q106 -16 155.5 -68t31.5 -140q-28 -132 -152 -194t-361 -62
q-73 0 -130 4.5t-117 19.5t-97 40.5t-55.5 70t-5.5 105.5h340q-6 -34 20 -51q27 -15 92 -15q112 0 125 58q7 39 -41 48zM350 -158l22 108h222l-16 -76q-17 -65 -57.5 -86.5t-145.5 -22.5l10 48q30 2 46 8t25 21h-106z" />
    <glyph glyph-name="scommaaccent" unicode="&#x219;" horiz-adv-x="815" 
d="M508 192l-238 25q-102 12 -135 52.5t-17 115.5q20 96 118 140t284 44q56 0 102 -4.5t92.5 -16.5t76 -32t45 -54t7.5 -79h-282q5 23 -12 34q-23 14 -71 14q-88 0 -97 -38q-6 -28 60 -34l234 -21q183 -17 151 -165q-21 -104 -123 -149.5t-303 -45.5q-197 0 -277 44t-64 148
h294q-3 -31 22 -44q20 -10 69 -10q83 0 91 42q8 30 -27 34zM275 -158l22 108h222l-16 -76q-17 -65 -57.5 -86.5t-145.5 -22.5l10 48q30 2 46 8t25 21h-106z" />
    <glyph glyph-name="uni021A" unicode="&#x21a;" horiz-adv-x="796" 
d="M257 0l111 534h-261l37 180h804l-37 -180h-261l-111 -534h-282zM261 -158l22 108h222l-16 -76q-17 -65 -57.5 -86.5t-145.5 -22.5l10 48q30 2 46 8t25 21h-106z" />
    <glyph glyph-name="uni021B" unicode="&#x21b;" horiz-adv-x="537" 
d="M90 391l32 156h116l37 176h250l-37 -176h135l-32 -156h-135l-40 -193q-8 -36 5.5 -45t57.5 -9q20 0 68 2l-30 -146q-81 -12 -185 -12q-119 0 -157.5 35.5t-15.5 142.5l47 225h-116zM202 -158l22 108h222l-16 -76q-17 -65 -57.5 -86.5t-145.5 -22.5l10 48q30 2 46 8t25 21
h-106z" />
    <glyph glyph-name="circumflex" unicode="&#x2c6;" horiz-adv-x="278" 
d="M-70 608l184 144h358l125 -144h-279l-52 76l-84 -76h-252z" />
    <glyph glyph-name="caron" unicode="&#x2c7;" horiz-adv-x="278" 
d="M84 608l-124 144h278l53 -76l83 76h253l-185 -144h-358z" />
    <glyph glyph-name="uni02C9" unicode="&#x2c9;" horiz-adv-x="278" 
d="M118 614l32 132h570l-33 -132h-569z" />
    <glyph glyph-name="breve" unicode="&#x2d8;" horiz-adv-x="278" 
d="M402 759h132q-36 -92 -107 -127q-61 -30 -166 -30q-106 0 -157.5 33t-51.5 124h132q2 -27 30 -36q17 -7 70 -7q93 0 118 43z" />
    <glyph glyph-name="dotaccent" unicode="&#x2d9;" horiz-adv-x="278" 
d="M144 614l27 132h242l-27 -132h-242z" />
    <glyph glyph-name="ring" unicode="&#x2da;" horiz-adv-x="278" 
d="M154 710q10 58 59.5 94.5t108.5 36.5q57 0 87.5 -36.5t20.5 -94.5q-13 -59 -62 -97t-106 -34q-57 0 -89 37.5t-19 93.5zM232 710q-6 -25 8 -42.5t39 -17.5t46 17.5t27 42.5q5 25 -9 42.5t-39 17.5t-46 -17.5t-26 -42.5z" />
    <glyph glyph-name="ogonek" unicode="&#x2db;" horiz-adv-x="278" 
d="M377 0h112q-41 -30 -59 -44t-34.5 -32t-19.5 -35q-3 -18 6.5 -28t27.5 -10q33 0 75 12l-6 -60q-78 -23 -158 -23q-63 0 -91 24.5t-19 64.5q14 68 166 131z" />
    <glyph glyph-name="tilde" unicode="&#x2dc;" horiz-adv-x="278" 
d="M479 749h106q-66 -156 -183 -156q-28 0 -142 24t-134 24q-26 0 -46 -29h-106q74 155 194 155q23 0 137 -24q103 -24 125 -24q32 0 49 30z" />
    <glyph glyph-name="hungarumlaut" unicode="&#x2dd;" horiz-adv-x="278" 
d="M-113 608l120 144h303l-183 -144h-240zM246 608l121 144h303l-183 -144h-241z" />
    <glyph glyph-name="uni0394" unicode="&#x394;" horiz-adv-x="722" 
d="M710 0h-698l396 712h177zM516 150l-54 386l-204 -386h258z" />
    <glyph glyph-name="uni03A9" unicode="&#x3a9;" horiz-adv-x="778" 
d="M811 416q-19 -89 -80 -162t-145 -90l-4 -19h172l-29 -145h-302l45 222q66 11 107.5 60.5t54.5 116.5q16 75 -15.5 125t-104.5 50q-75 0 -129.5 -52t-71.5 -129q-13 -67 8 -113.5t81 -57.5l-45 -222h-302l29 145h173l4 19q-80 23 -110 91.5t-11 159.5q29 143 144 224.5
t261 81.5q142 0 220.5 -82.5t49.5 -222.5z" />
    <glyph glyph-name="uni03BC" unicode="&#x3bc;" horiz-adv-x="832" 
d="M884 547l-112 -547h-242l11 61h-2q-32 -40 -73 -61.5t-76 -21.5q-50 0 -76 40h-2l-44 -214h-249l153 743h250l-60 -290q-22 -99 75 -99q117 0 144 131l53 258h250z" />
    <glyph glyph-name="pi" unicode="&#x3c0;" horiz-adv-x="629" 
d="M603 134v-113q-59 -30 -109 -30q-70 0 -98.5 38t-28.5 109v217h-143l1 -355h-155l-1 355h-69v141h603v-141h-81v-155q0 -3 -0.5 -14t0 -15.5t1.5 -14t3.5 -14t6.5 -9.5t11 -7.5t16 -2.5q19 0 43 11z" />
    <glyph glyph-name="endash" unicode="&#x2013;" horiz-adv-x="500" 
d="M44 213l33 162h500l-33 -162h-500z" />
    <glyph glyph-name="emdash" unicode="&#x2014;" horiz-adv-x="1000" 
d="M44 213l33 162h1000l-33 -162h-1000z" />
    <glyph glyph-name="quoteleft" unicode="&#x2018;" horiz-adv-x="408" 
d="M132 286l35 170q12 57 41 103t63.5 73.5t75.5 46.5t74 26.5t62 8.5l-19 -90q-114 -13 -141 -114h118l-47 -224h-262z" />
    <glyph glyph-name="quoteright" unicode="&#x2019;" horiz-adv-x="408" 
d="M174 490l47 224h262l-35 -170q-12 -57 -41.5 -103t-64 -73.5t-75 -46.5t-73.5 -26.5t-62 -8.5l19 90q114 13 141 114h-118z" />
    <glyph glyph-name="quotesinglbase" unicode="&#x201a;" horiz-adv-x="408" 
d="M73 0l46 224h262l-35 -170q-12 -57 -41 -103t-63.5 -73.5t-75.5 -46.5t-74 -26.5t-62 -8.5l19 90q114 13 142 114h-118z" />
    <glyph glyph-name="quotedblleft" unicode="&#x201c;" horiz-adv-x="722" 
d="M467 286l35 170q12 57 41 103t63.5 73.5t75.5 46.5t74 26.5t62 8.5l-19 -90q-114 -13 -141 -114h118l-47 -224h-262zM111 286l35 170q12 57 41 103t63.5 73.5t75.5 46.5t74 26.5t62 8.5l-19 -90q-114 -13 -141 -114h118l-47 -224h-262z" />
    <glyph glyph-name="quotedblright" unicode="&#x201d;" horiz-adv-x="722" 
d="M153 490l47 224h262l-35 -170q-12 -57 -41.5 -103t-64 -73.5t-75 -46.5t-73.5 -26.5t-62 -8.5l19 90q114 13 141 114h-118zM509 490l47 224h262l-35 -170q-12 -57 -41.5 -103t-64 -73.5t-75 -46.5t-73.5 -26.5t-62 -8.5l19 90q114 13 141 114h-118z" />
    <glyph glyph-name="quotedblbase" unicode="&#x201e;" horiz-adv-x="722" 
d="M52 0l46 224h262l-35 -170q-12 -57 -41 -103t-63.5 -73.5t-75.5 -46.5t-74 -26.5t-62 -8.5l19 90q114 13 142 114h-118zM408 0l46 224h262l-35 -170q-12 -57 -41 -103t-63.5 -73.5t-75.5 -46.5t-74 -26.5t-62 -8.5l19 90q114 13 142 114h-118z" />
    <glyph glyph-name="dagger" unicode="&#x2020;" horiz-adv-x="964" 
d="M173 340l36 174h248l42 200h262l-42 -200h248l-36 -174h-248l-111 -536h-262l111 536h-248z" />
    <glyph glyph-name="daggerdbl" unicode="&#x2021;" horiz-adv-x="964" 
d="M100 -12l32 156h254l48 230h-254l33 156h254l38 184h250l-38 -184h254l-33 -156h-254l-48 -230h254l-32 -156h-254l-38 -184h-250l38 184h-254z" />
    <glyph glyph-name="bullet" unicode="&#x2022;" horiz-adv-x="500" 
d="M146 357q14 74 77.5 126t137.5 52q75 0 115 -51.5t26 -126.5q-16 -74 -78 -126t-137 -52q-74 0 -115.5 52t-25.5 126z" />
    <glyph glyph-name="ellipsis" unicode="&#x2026;" horiz-adv-x="1000" 
d="M36 0l46 224h262l-46 -224h-262zM369 0l46 224h262l-46 -224h-262zM702 0l46 224h262l-46 -224h-262z" />
    <glyph glyph-name="perthousand" unicode="&#x2030;" horiz-adv-x="1166" 
d="M238 538q-12 -56 -8 -77t30 -21t38 20t24 78q8 38 9.5 58.5t-5.5 30t-25 9.5q-25 0 -38 -20.5t-25 -77.5zM88 -20l621 734h128l-621 -734h-128zM603 156q-12 -56 -8 -77t30 -21t38 20t24 78q12 55 8 76.5t-30 21.5q-25 0 -37.5 -20.5t-24.5 -77.5zM112 538
q38 176 205 176q169 0 131 -176q-36 -176 -204 -176t-132 176zM477 156q36 176 205 176q167 0 131 -176q-38 -176 -205 -176q-169 0 -131 176zM861 156q36 176 205 176q167 0 131 -176q-38 -176 -205 -176q-169 0 -131 176zM987 156q-12 -56 -8 -77t30 -21t38 20t24 78
q12 55 8 76.5t-30 21.5q-25 0 -37.5 -20.5t-24.5 -77.5z" />
    <glyph glyph-name="guilsinglleft" unicode="&#x2039;" horiz-adv-x="408" 
d="M128 195l41 198l250 161l-35 -168l-144 -92l105 -92l-34 -168z" />
    <glyph glyph-name="guilsinglright" unicode="&#x203a;" horiz-adv-x="408" 
d="M111 34l34 168l145 92l-106 92l35 168l182 -161l-41 -198z" />
    <glyph glyph-name="fraction" unicode="&#x2044;" horiz-adv-x="166" 
d="M-223 -20l772 734h128l-772 -734h-128z" />
    <glyph glyph-name="Euro" unicode="&#x20ac;" horiz-adv-x="964" 
d="M1056 647l-145 -163q-107 64 -186 64q-108 0 -177 -102h335l-70 -85h-299l-4 -15l-3 -16h283l-70 -85h-216q8 -58 43.5 -83t98.5 -25q67 0 127.5 20.5t137.5 61.5l-44 -206q-150 -37 -281 -37q-80 0 -143 11.5t-118 40t-84.5 83.5t-28.5 134h-96l70 85h36q0 9 6 31h-87
l69 85h44q107 262 498 262q166 0 304 -61z" />
    <glyph glyph-name="afii61289" unicode="&#x2113;" horiz-adv-x="500" 
d="M513 586q0 -82 -61.5 -157.5t-202.5 -165.5q-25 -100 -25 -123q0 -41 40 -41q35 0 97 39h2l38 -90q-91 -62 -185 -62q-71 0 -109.5 34.5t-38.5 91.5q0 11 7 50l-58 -40h-2l-41 88l128 82l48 229q20 92 79.5 146t143.5 54q61 0 100.5 -39t39.5 -96zM384 579q0 17 -8 28.5
t-20 11.5q-30 0 -43 -59l-35 -162q47 39 76.5 87.5t29.5 93.5z" />
    <glyph glyph-name="trademark" unicode="&#x2122;" horiz-adv-x="1000" 
d="M173 302l63 304h-112l23 108h368l-23 -108h-112l-63 -304h-144zM891 302l56 268h-2l-138 -268h-102l-26 268h-2l-56 -268h-132l86 412h192l24 -238h2l124 238h192l-86 -412h-132z" />
    <glyph glyph-name="Omega" unicode="&#x2126;" horiz-adv-x="778" 
d="M811 416q-19 -89 -80 -162t-145 -90l-4 -19h172l-29 -145h-302l45 222q66 11 107.5 60.5t54.5 116.5q16 75 -15.5 125t-104.5 50q-75 0 -129.5 -52t-71.5 -129q-13 -67 8 -113.5t81 -57.5l-45 -222h-302l29 145h173l4 19q-80 23 -110 91.5t-11 159.5q29 143 144 224.5
t261 81.5q142 0 220.5 -82.5t49.5 -222.5z" />
    <glyph glyph-name="estimated" unicode="&#x212e;" horiz-adv-x="600" 
d="M561 259h-404v-181q59 -59 145 -59q122 0 193 120l35 -21q-46 -72 -98 -103.5t-130 -31.5q-115 0 -186.5 79t-71.5 197q0 119 71 197.5t187 78.5q115 0 186.5 -77t72.5 -199zM157 295h291v145q-63 60 -147 60t-144 -60v-145z" />
    <glyph glyph-name="partialdiff" unicode="&#x2202;" horiz-adv-x="593" 
d="M547 358q0 -71 -11.5 -131.5t-39 -117.5t-81 -90t-129.5 -33q-107 0 -174.5 65t-67.5 172q0 97 63.5 163.5t161.5 66.5q67 0 123 -41q0 32 -5.5 62.5t-17.5 61t-37 49t-60 18.5q-58 0 -120 -58l-84 93q46 43 92.5 63t107.5 20q62 0 110.5 -20.5t79.5 -55t51.5 -82t29 -98
t8.5 -107.5zM390 273v21q-43 43 -95 43q-48 0 -74.5 -36t-26.5 -85q0 -46 24 -81t68 -35q29 0 51 17.5t32.5 45.5t15.5 55.5t5 54.5z" />
    <glyph glyph-name="Delta" unicode="&#x2206;" horiz-adv-x="722" 
d="M710 0h-698l396 712h177zM516 150l-54 386l-204 -386h258z" />
    <glyph glyph-name="product" unicode="&#x220f;" horiz-adv-x="759" 
d="M710 -214h-156v845h-350v-845h-157v1000h663v-1000z" />
    <glyph glyph-name="summation" unicode="&#x2211;" horiz-adv-x="704" 
d="M673 -214h-643l-1 135l286 372l-275 356v137h621v-156h-413l251 -337l-266 -351h440v-156z" />
    <glyph glyph-name="minus" unicode="&#x2212;" horiz-adv-x="600" 
d="M84 181l30 144h506l-30 -144h-506z" />
    <glyph glyph-name="uni2215" unicode="&#x2215;" horiz-adv-x="166" 
d="M-223 -20l772 734h128l-772 -734h-128z" />
    <glyph glyph-name="uni2219" unicode="&#x2219;" horiz-adv-x="408" 
d="M173 244q24 54 77.5 92.5t107.5 38.5t77.5 -38.5t-0.5 -92.5q-20 -53 -76 -92t-109 -39q-55 0 -76.5 38t-0.5 93z" />
    <glyph glyph-name="radical" unicode="&#x221a;" horiz-adv-x="611" 
d="M616 786l-225 -1000h-142l-140 286l-58 -27l-57 122l197 91l104 -232l155 760h166z" />
    <glyph glyph-name="infinity" unicode="&#x221e;" horiz-adv-x="889" 
d="M843 276q0 -96 -54 -158.5t-149 -62.5q-111 0 -197 118q-41 -57 -85.5 -87t-105.5 -30q-96 0 -152 61.5t-56 158.5q0 95 54 154.5t149 59.5q65 0 107 -31t89 -95q44 63 87.5 94.5t109.5 31.5q95 0 149 -59.5t54 -154.5zM711 273q0 35 -20.5 57.5t-55.5 22.5
q-57 0 -113 -82q55 -78 116 -78q35 0 54 22.5t19 57.5zM364 271q-22 32 -53.5 57t-62.5 25q-33 0 -52.5 -23.5t-19.5 -57.5q0 -35 19.5 -56.5t53.5 -21.5q62 0 115 77z" />
    <glyph glyph-name="integral" unicode="&#x222b;" horiz-adv-x="667" 
d="M572 684q0 -32 -20 -52.5t-52 -20.5q-33 0 -49 17t-17 37.5t-5.5 37.5t-17.5 17q-20 0 -20 -40q0 -34 4 -101t4 -101l1 -302v-32q1 -45 0.5 -69t-4 -67.5t-10.5 -69t-21.5 -58.5t-35.5 -51t-53.5 -31t-74.5 -13q-52 0 -97 26.5t-45 75.5q0 32 19.5 52.5t51.5 20.5
t48.5 -17t18 -37t6.5 -37t17 -17q20 0 20 42q0 30 -4.5 87t-4.5 86v389v49t2 48.5t5.5 52.5t11.5 46t19 46t29 36t41 32q36 20 90 20q53 0 98 -26t45 -76z" />
    <glyph glyph-name="approxequal" unicode="&#x2248;" horiz-adv-x="593" 
d="M581 503h102q-13 -49 -39 -95.5t-70.5 -83.5t-94.5 -37q-35 0 -118 30t-122 30q-22 0 -39.5 -15.5t-24.5 -38.5h-101q17 76 74 146t129 70q39 0 121.5 -29.5t120.5 -29.5q47 0 62 53zM529 253h102q-14 -49 -38 -95t-67 -84t-93 -38q-41 0 -124 30t-122 30q-48 0 -63 -52
h-101q14 71 72.5 142.5t125.5 71.5q43 0 123 -29.5t123 -29.5q25 0 38.5 13.5t23.5 40.5z" />
    <glyph glyph-name="notequal" unicode="&#x2260;" horiz-adv-x="593" 
d="M568 72h-285l-80 -163l-138 68l46 95h-89v157h167l42 87h-209v158h287l80 161l137 -68l-46 -93h88v-158h-165l-43 -87h208v-157z" />
    <glyph glyph-name="lessequal" unicode="&#x2264;" horiz-adv-x="593" 
d="M568 128l-546 164v156l546 148v-160l-326 -66l326 -81v-161zM568 -53h-546v157h546v-157z" />
    <glyph glyph-name="greaterequal" unicode="&#x2265;" horiz-adv-x="593" 
d="M568 292l-546 -164v161l327 81l-327 66v160l546 -148v-156zM568 -53h-546v157h546v-157z" />
    <glyph glyph-name="lozenge" unicode="&#x25ca;" horiz-adv-x="593" 
d="M561 356l-196 -391h-142l-194 391l196 391h140zM399 356l-104 231l-105 -231l105 -231z" />
    <glyph glyph-name="commaaccent" unicode="&#xf004;" horiz-adv-x="408" 
d="M95 -158l22 108h222l-16 -76q-17 -65 -57.5 -86.5t-145.5 -22.5l10 48q30 2 46 8t25 21h-106z" />
    <glyph glyph-name="commaaccent" unicode="&#xf6c3;" horiz-adv-x="408" 
d="M95 -158l22 108h222l-16 -76q-17 -65 -57.5 -86.5t-145.5 -22.5l10 48q30 2 46 8t25 21h-106z" />
    <glyph glyph-name="dotlessj" unicode="&#xf6be;" horiz-adv-x="389" 
d="M-64 -190l36 174h45q36 0 49.5 10t20.5 49l105 504h250l-113 -543q-14 -66 -36 -106.5t-57.5 -60.5t-72.5 -26.5t-96 -6.5q-87 0 -131 6z" />
    <glyph glyph-name="dotlessj" unicode="&#xfb0f;" horiz-adv-x="389" 
d="M-64 -190l36 174h45q36 0 49.5 10t20.5 49l105 504h250l-113 -543q-14 -66 -36 -106.5t-57.5 -60.5t-72.5 -26.5t-96 -6.5q-87 0 -131 6z" />
    <glyph glyph-name="uniF8FF" unicode="&#xf8ff;" horiz-adv-x="512" 
d="M222 117h56v67h-56v-67zM225 234h46q0 52 6 72q6 19 43 52q37 34 50 60t13 60q0 59 -35 95t-89 36q-56 0 -92 -34t-43 -103l50 -8q11 95 82 95q31 0 53.5 -24.5t22.5 -60.5q0 -20 -9.5 -37t-40.5 -46q-31 -31 -46 -59q-13 -25 -13 -81zM462 50h-412v617h412v-617z
M512 718h-512v-718h512v718z" />
    <glyph glyph-name="commaaccent.alt" horiz-adv-x="408" 
d="M460 739l-22 -108h-222l16 76q17 65 57.5 86.5t145.5 22.5l-10 -48q-55 -5 -70 -29h105z" />
    <glyph glyph-name="caron.alt" horiz-adv-x="278" 
d="M166 577l63 162h237l-118 -162h-182z" />
    <glyph glyph-name="grave.cap" horiz-adv-x="278" 
d="M174 608l-123 144h303l61 -144h-241z" />
    <glyph glyph-name="acute.cap" horiz-adv-x="278" 
d="M111 608l121 144h303l-183 -144h-241z" />
    <glyph glyph-name="circumflex.cap" horiz-adv-x="278" 
d="M-70 608l184 144h358l125 -144h-279l-52 76l-84 -76h-252z" />
    <glyph glyph-name="caron.cap" horiz-adv-x="278" 
d="M84 608l-124 144h278l53 -76l83 76h253l-185 -144h-358z" />
    <glyph glyph-name="tilde.cap" horiz-adv-x="278" 
d="M479 749h106q-66 -156 -183 -156q-28 0 -142 24t-134 24q-26 0 -46 -29h-106q74 155 194 155q23 0 137 -24q103 -24 125 -24q32 0 49 30z" />
    <glyph glyph-name="dieresis.cap" horiz-adv-x="278" 
d="M-15 614l26 132h242l-27 -132h-241zM304 614l27 132h242l-27 -132h-242z" />
    <glyph glyph-name="macron.cap" horiz-adv-x="278" 
d="M118 614l32 132h570l-33 -132h-569z" />
    <glyph glyph-name="breve.cap" horiz-adv-x="278" 
d="M402 759h132q-36 -92 -107 -127q-61 -30 -166 -30q-106 0 -157.5 33t-51.5 124h132q2 -27 30 -36q17 -7 70 -7q93 0 118 43z" />
    <glyph glyph-name="ring.cap" horiz-adv-x="278" 
d="M154 710q10 58 59.5 94.5t108.5 36.5q57 0 87.5 -36.5t20.5 -94.5q-13 -59 -62 -97t-106 -34q-57 0 -89 37.5t-19 93.5zM232 710q-6 -25 8 -42.5t39 -17.5t46 17.5t27 42.5q5 25 -9 42.5t-39 17.5t-46 -17.5t-26 -42.5z" />
    <glyph glyph-name="hungarumlaut.cap" horiz-adv-x="278" 
d="M-113 608l120 144h303l-183 -144h-240zM246 608l121 144h303l-183 -144h-241z" />
    <glyph glyph-name="dotaccent.cap" horiz-adv-x="278" 
d="M144 614l27 132h242l-27 -132h-242z" />
    </font>
</defs>
</svg>
